G04 #@! TF.FileFunction,Copper,L1,Top,Signal*
%FSLAX46Y46*%
G04 Gerber Fmt 4.6, Leading zero omitted, Abs format (unit mm)*
G04 Created by KiCad (PCBNEW (2016-03-06 BZR 6610)-product) date 2016 April 20, Wednesday 18:41:49*
%MOMM*%
G01*
G04 APERTURE LIST*
%ADD10C,0.100000*%
%ADD11R,0.900000X1.200000*%
%ADD12C,1.300000*%
%ADD13O,1.900000X2.900000*%
%ADD14O,2.900000X1.900000*%
%ADD15C,6.400000*%
%ADD16C,0.600000*%
%ADD17C,1.524000*%
%ADD18C,1.500000*%
%ADD19R,1.200000X0.900000*%
%ADD20R,2.235200X2.235200*%
%ADD21C,0.500000*%
%ADD22C,0.250000*%
%ADD23C,0.152400*%
G04 APERTURE END LIST*
D10*
D11*
X138570000Y-105250000D03*
X138570000Y-107450000D03*
X141110000Y-107450000D03*
X141110000Y-105250000D03*
X158890000Y-105250000D03*
X158890000Y-107450000D03*
X161430000Y-107450000D03*
X161430000Y-105250000D03*
X138570000Y-94750000D03*
X138570000Y-92550000D03*
X141110000Y-92550000D03*
X141110000Y-94750000D03*
X158890000Y-94750000D03*
X158890000Y-92550000D03*
X161430000Y-92550000D03*
X161430000Y-94750000D03*
D12*
X146500000Y-94920000D03*
X149000000Y-94920000D03*
X151000000Y-94920000D03*
X153500000Y-94920000D03*
D13*
X143430000Y-94320000D03*
X156570000Y-94320000D03*
D14*
X150000000Y-90740000D03*
D15*
X159525000Y-100000000D03*
D16*
X161925000Y-100000000D03*
X161222056Y-101697056D03*
X159525000Y-102400000D03*
X157827944Y-101697056D03*
X157125000Y-100000000D03*
X157827944Y-98302944D03*
X159525000Y-97600000D03*
X161222056Y-98302944D03*
D15*
X140475000Y-100000000D03*
D16*
X142875000Y-100000000D03*
X142172056Y-101697056D03*
X140475000Y-102400000D03*
X138777944Y-101697056D03*
X138075000Y-100000000D03*
X138777944Y-98302944D03*
X140475000Y-97600000D03*
X142172056Y-98302944D03*
D17*
X133335000Y-93054000D03*
X135875000Y-98134000D03*
X133335000Y-105500000D03*
X164125000Y-93054000D03*
X166665000Y-98134000D03*
X164125000Y-105500000D03*
D18*
X129435000Y-93100000D03*
X129435000Y-95400000D03*
X129435000Y-97700000D03*
X129435000Y-100000000D03*
X129435000Y-102300000D03*
X129435000Y-104600000D03*
X129435000Y-106900000D03*
X170565000Y-93100000D03*
X170565000Y-95400000D03*
X170565000Y-97700000D03*
X170565000Y-100000000D03*
X170565000Y-102300000D03*
X170565000Y-104600000D03*
X170565000Y-106900000D03*
D19*
X151100000Y-97460000D03*
X148900000Y-97460000D03*
D20*
X146190000Y-100000000D03*
X153810000Y-100000000D03*
D12*
X153500000Y-105080000D03*
X151000000Y-105080000D03*
X149000000Y-105080000D03*
X146500000Y-105080000D03*
D13*
X156570000Y-105680000D03*
X143430000Y-105680000D03*
D14*
X150000000Y-109260000D03*
D16*
X161430000Y-106350000D03*
X138570000Y-106350000D03*
X138570000Y-93650000D03*
X161430000Y-93650000D03*
X139840000Y-94750000D03*
X160160000Y-94750000D03*
D21*
X140475000Y-100000000D02*
X141745000Y-100000000D01*
X141745000Y-100000000D02*
X144920000Y-103175000D01*
X144920000Y-103175000D02*
X144920000Y-107620000D01*
X153500000Y-105080000D02*
X153500000Y-107620000D01*
X153500000Y-107620000D02*
X153810000Y-107620000D01*
X158890000Y-107450000D02*
X158425000Y-107450000D01*
X158255000Y-107620000D02*
X153810000Y-107620000D01*
X153810000Y-107620000D02*
X144920000Y-107620000D01*
X144920000Y-107620000D02*
X141280000Y-107620000D01*
X158425000Y-107450000D02*
X158255000Y-107620000D01*
X141280000Y-107620000D02*
X141110000Y-107450000D01*
D22*
X141110000Y-92550000D02*
X141575000Y-92550000D01*
X143650000Y-91745000D02*
X146500000Y-94595000D01*
X142380000Y-91745000D02*
X143650000Y-91745000D01*
X141575000Y-92550000D02*
X142380000Y-91745000D01*
X146500000Y-94595000D02*
X146500000Y-94920000D01*
X164125000Y-105500000D02*
X164125000Y-108890000D01*
X164125000Y-108890000D02*
X163970000Y-108890000D01*
X158890000Y-107450000D02*
X158890000Y-108255000D01*
X158890000Y-91745000D02*
X158890000Y-92550000D01*
X159525000Y-91110000D02*
X158890000Y-91745000D01*
X165240000Y-91110000D02*
X159525000Y-91110000D01*
X168415000Y-94285000D02*
X165240000Y-91110000D01*
X171590000Y-94285000D02*
X168415000Y-94285000D01*
X172225000Y-94920000D02*
X171590000Y-94285000D01*
X172225000Y-108255000D02*
X172225000Y-94920000D01*
X171590000Y-108890000D02*
X172225000Y-108255000D01*
X159525000Y-108890000D02*
X163970000Y-108890000D01*
X163970000Y-108890000D02*
X171590000Y-108890000D01*
X158890000Y-108255000D02*
X159525000Y-108890000D01*
X141110000Y-92550000D02*
X141110000Y-91745000D01*
X135279000Y-91110000D02*
X133335000Y-93054000D01*
X140475000Y-91110000D02*
X135279000Y-91110000D01*
X141110000Y-91745000D02*
X140475000Y-91110000D01*
X141110000Y-107450000D02*
X141110000Y-108890000D01*
X132104000Y-94285000D02*
X133335000Y-93054000D01*
X128410000Y-94285000D02*
X132104000Y-94285000D01*
X127775000Y-94920000D02*
X128410000Y-94285000D01*
X127775000Y-108890000D02*
X127775000Y-94920000D01*
X128410000Y-109525000D02*
X127775000Y-108890000D01*
X140475000Y-109525000D02*
X128410000Y-109525000D01*
X141110000Y-108890000D02*
X140475000Y-109525000D01*
D21*
X151000000Y-105080000D02*
X151000000Y-104810000D01*
X151000000Y-104810000D02*
X146190000Y-100000000D01*
X129435000Y-93100000D02*
X129435000Y-91355000D01*
X144555000Y-90475000D02*
X149000000Y-94920000D01*
X130315000Y-90475000D02*
X144555000Y-90475000D01*
X129435000Y-91355000D02*
X130315000Y-90475000D01*
X170565000Y-93100000D02*
X170565000Y-91355000D01*
X155445000Y-90475000D02*
X151000000Y-94920000D01*
X169685000Y-90475000D02*
X155445000Y-90475000D01*
X170565000Y-91355000D02*
X169685000Y-90475000D01*
D22*
X161430000Y-107450000D02*
X161430000Y-106350000D01*
X138570000Y-106350000D02*
X138570000Y-107450000D01*
X138570000Y-92550000D02*
X138570000Y-93650000D01*
X161430000Y-92550000D02*
X161430000Y-93650000D01*
D21*
X129435000Y-104600000D02*
X129525000Y-104600000D01*
X129525000Y-104600000D02*
X130315000Y-103810000D01*
X130315000Y-103810000D02*
X137130000Y-103810000D01*
X137130000Y-103810000D02*
X138570000Y-105250000D01*
X138570000Y-105250000D02*
X141110000Y-105250000D01*
X170565000Y-104600000D02*
X170475000Y-104600000D01*
X170475000Y-104600000D02*
X169685000Y-103810000D01*
X169685000Y-103810000D02*
X162870000Y-103810000D01*
X162870000Y-103810000D02*
X161430000Y-105250000D01*
X158890000Y-105250000D02*
X161430000Y-105250000D01*
X138570000Y-94750000D02*
X139840000Y-94750000D01*
X139840000Y-94750000D02*
X141110000Y-94750000D01*
X158890000Y-94750000D02*
X160160000Y-94750000D01*
X160160000Y-94750000D02*
X161430000Y-94750000D01*
X129435000Y-100000000D02*
X134009000Y-100000000D01*
X134009000Y-100000000D02*
X135875000Y-98134000D01*
X170565000Y-100000000D02*
X168531000Y-100000000D01*
X168531000Y-100000000D02*
X166665000Y-98134000D01*
X170565000Y-97700000D02*
X170560000Y-97700000D01*
X170560000Y-97700000D02*
X169050000Y-96190000D01*
X169050000Y-96190000D02*
X152370000Y-96190000D01*
X152370000Y-96190000D02*
X151100000Y-97460000D01*
X129435000Y-97700000D02*
X129440000Y-97700000D01*
X129440000Y-97700000D02*
X130950000Y-96190000D01*
X130950000Y-96190000D02*
X148095000Y-96190000D01*
X148095000Y-96190000D02*
X148900000Y-96995000D01*
X148900000Y-96995000D02*
X148900000Y-97460000D01*
D23*
G36*
X172765161Y-88859845D02*
X172989954Y-89010047D01*
X173140155Y-89234838D01*
X173198800Y-89529668D01*
X173198800Y-111198800D01*
X126801200Y-111198800D01*
X126801200Y-109260000D01*
X148239982Y-109260000D01*
X148333321Y-109729246D01*
X148599128Y-110127054D01*
X148996936Y-110392861D01*
X149466182Y-110486200D01*
X150533818Y-110486200D01*
X151003064Y-110392861D01*
X151400872Y-110127054D01*
X151666679Y-109729246D01*
X151760018Y-109260000D01*
X151666679Y-108790754D01*
X151400872Y-108392946D01*
X151003064Y-108127139D01*
X150533818Y-108033800D01*
X149466182Y-108033800D01*
X148996936Y-108127139D01*
X148599128Y-108392946D01*
X148333321Y-108790754D01*
X148239982Y-109260000D01*
X126801200Y-109260000D01*
X126801200Y-107103228D01*
X128408623Y-107103228D01*
X128564523Y-107480536D01*
X128852946Y-107769462D01*
X129229981Y-107926021D01*
X129638228Y-107926377D01*
X130015536Y-107770477D01*
X130304462Y-107482054D01*
X130461021Y-107105019D01*
X130461377Y-106696772D01*
X130305477Y-106319464D01*
X130017054Y-106030538D01*
X129640019Y-105873979D01*
X129231772Y-105873623D01*
X128854464Y-106029523D01*
X128565538Y-106317946D01*
X128408979Y-106694981D01*
X128408623Y-107103228D01*
X126801200Y-107103228D01*
X126801200Y-105705605D01*
X132296620Y-105705605D01*
X132454343Y-106087325D01*
X132746139Y-106379630D01*
X133127583Y-106538020D01*
X133540605Y-106538380D01*
X133922325Y-106380657D01*
X134214630Y-106088861D01*
X134373020Y-105707417D01*
X134373380Y-105294395D01*
X134215657Y-104912675D01*
X133923861Y-104620370D01*
X133542417Y-104461980D01*
X133129395Y-104461620D01*
X132747675Y-104619343D01*
X132455370Y-104911139D01*
X132296980Y-105292583D01*
X132296620Y-105705605D01*
X126801200Y-105705605D01*
X126801200Y-104803228D01*
X128408623Y-104803228D01*
X128564523Y-105180536D01*
X128852946Y-105469462D01*
X129229981Y-105626021D01*
X129638228Y-105626377D01*
X130015536Y-105470477D01*
X130304462Y-105182054D01*
X130461021Y-104805019D01*
X130461367Y-104407792D01*
X130532959Y-104336200D01*
X136912040Y-104336200D01*
X137838389Y-105262548D01*
X137838389Y-105850000D01*
X137859825Y-105957768D01*
X137920871Y-106049129D01*
X138012232Y-106110175D01*
X138043133Y-106116321D01*
X137993901Y-106234884D01*
X137993701Y-106464110D01*
X138043108Y-106583684D01*
X138012232Y-106589825D01*
X137920871Y-106650871D01*
X137859825Y-106742232D01*
X137838389Y-106850000D01*
X137838389Y-108050000D01*
X137859825Y-108157768D01*
X137920871Y-108249129D01*
X138012232Y-108310175D01*
X138120000Y-108331611D01*
X139020000Y-108331611D01*
X139127768Y-108310175D01*
X139219129Y-108249129D01*
X139280175Y-108157768D01*
X139301611Y-108050000D01*
X139301611Y-106850000D01*
X139280175Y-106742232D01*
X139219129Y-106650871D01*
X139127768Y-106589825D01*
X139096867Y-106583679D01*
X139146099Y-106465116D01*
X139146299Y-106235890D01*
X139096892Y-106116316D01*
X139127768Y-106110175D01*
X139219129Y-106049129D01*
X139280175Y-105957768D01*
X139301611Y-105850000D01*
X139301611Y-105776200D01*
X140378389Y-105776200D01*
X140378389Y-105850000D01*
X140399825Y-105957768D01*
X140460871Y-106049129D01*
X140552232Y-106110175D01*
X140660000Y-106131611D01*
X141560000Y-106131611D01*
X141667768Y-106110175D01*
X141759129Y-106049129D01*
X141820175Y-105957768D01*
X141841611Y-105850000D01*
X141841611Y-105146182D01*
X142203800Y-105146182D01*
X142203800Y-106213818D01*
X142297139Y-106683064D01*
X142562946Y-107080872D01*
X142960754Y-107346679D01*
X143430000Y-107440018D01*
X143899246Y-107346679D01*
X144297054Y-107080872D01*
X144562861Y-106683064D01*
X144656200Y-106213818D01*
X144656200Y-105263424D01*
X145573640Y-105263424D01*
X145714348Y-105603965D01*
X145974665Y-105864736D01*
X146314959Y-106006039D01*
X146683424Y-106006360D01*
X147023965Y-105865652D01*
X147284736Y-105605335D01*
X147426039Y-105265041D01*
X147426040Y-105263424D01*
X148073640Y-105263424D01*
X148214348Y-105603965D01*
X148474665Y-105864736D01*
X148814959Y-106006039D01*
X149183424Y-106006360D01*
X149523965Y-105865652D01*
X149784736Y-105605335D01*
X149926039Y-105265041D01*
X149926360Y-104896576D01*
X149785652Y-104556035D01*
X149525335Y-104295264D01*
X149185041Y-104153961D01*
X148816576Y-104153640D01*
X148476035Y-104294348D01*
X148215264Y-104554665D01*
X148073961Y-104894959D01*
X148073640Y-105263424D01*
X147426040Y-105263424D01*
X147426360Y-104896576D01*
X147285652Y-104556035D01*
X147025335Y-104295264D01*
X146685041Y-104153961D01*
X146316576Y-104153640D01*
X145976035Y-104294348D01*
X145715264Y-104554665D01*
X145573961Y-104894959D01*
X145573640Y-105263424D01*
X144656200Y-105263424D01*
X144656200Y-105146182D01*
X144562861Y-104676936D01*
X144297054Y-104279128D01*
X143899246Y-104013321D01*
X143430000Y-103919982D01*
X142960754Y-104013321D01*
X142562946Y-104279128D01*
X142297139Y-104676936D01*
X142203800Y-105146182D01*
X141841611Y-105146182D01*
X141841611Y-104650000D01*
X141820175Y-104542232D01*
X141759129Y-104450871D01*
X141667768Y-104389825D01*
X141560000Y-104368389D01*
X140660000Y-104368389D01*
X140552232Y-104389825D01*
X140460871Y-104450871D01*
X140399825Y-104542232D01*
X140378389Y-104650000D01*
X140378389Y-104723800D01*
X139301611Y-104723800D01*
X139301611Y-104650000D01*
X139280175Y-104542232D01*
X139219129Y-104450871D01*
X139127768Y-104389825D01*
X139020000Y-104368389D01*
X138432548Y-104368389D01*
X137502080Y-103437920D01*
X137331368Y-103323855D01*
X137130000Y-103283799D01*
X137129995Y-103283800D01*
X130315005Y-103283800D01*
X130315000Y-103283799D01*
X130113632Y-103323855D01*
X129942920Y-103437920D01*
X129942918Y-103437923D01*
X129757909Y-103622931D01*
X129640019Y-103573979D01*
X129231772Y-103573623D01*
X128854464Y-103729523D01*
X128565538Y-104017946D01*
X128408979Y-104394981D01*
X128408623Y-104803228D01*
X126801200Y-104803228D01*
X126801200Y-102503228D01*
X128408623Y-102503228D01*
X128564523Y-102880536D01*
X128852946Y-103169462D01*
X129229981Y-103326021D01*
X129638228Y-103326377D01*
X130015536Y-103170477D01*
X130304462Y-102882054D01*
X130457246Y-102514110D01*
X139898701Y-102514110D01*
X139986237Y-102725964D01*
X140148183Y-102888193D01*
X140359884Y-102976099D01*
X140589110Y-102976299D01*
X140800964Y-102888763D01*
X140963193Y-102726817D01*
X141051099Y-102515116D01*
X141051299Y-102285890D01*
X140963763Y-102074036D01*
X140801817Y-101911807D01*
X140590116Y-101823901D01*
X140360890Y-101823701D01*
X140149036Y-101911237D01*
X139986807Y-102073183D01*
X139898901Y-102284884D01*
X139898701Y-102514110D01*
X130457246Y-102514110D01*
X130461021Y-102505019D01*
X130461377Y-102096772D01*
X130343368Y-101811166D01*
X138201645Y-101811166D01*
X138289181Y-102023020D01*
X138451127Y-102185249D01*
X138662828Y-102273155D01*
X138892054Y-102273355D01*
X139103908Y-102185819D01*
X139266137Y-102023873D01*
X139354043Y-101812172D01*
X139354043Y-101811166D01*
X141595757Y-101811166D01*
X141683293Y-102023020D01*
X141845239Y-102185249D01*
X142056940Y-102273155D01*
X142286166Y-102273355D01*
X142498020Y-102185819D01*
X142660249Y-102023873D01*
X142748155Y-101812172D01*
X142748355Y-101582946D01*
X142660819Y-101371092D01*
X142498873Y-101208863D01*
X142287172Y-101120957D01*
X142057946Y-101120757D01*
X141846092Y-101208293D01*
X141683863Y-101370239D01*
X141595957Y-101581940D01*
X141595757Y-101811166D01*
X139354043Y-101811166D01*
X139354243Y-101582946D01*
X139266707Y-101371092D01*
X139104761Y-101208863D01*
X138893060Y-101120957D01*
X138663834Y-101120757D01*
X138451980Y-101208293D01*
X138289751Y-101370239D01*
X138201845Y-101581940D01*
X138201645Y-101811166D01*
X130343368Y-101811166D01*
X130305477Y-101719464D01*
X130017054Y-101430538D01*
X129640019Y-101273979D01*
X129231772Y-101273623D01*
X128854464Y-101429523D01*
X128565538Y-101717946D01*
X128408979Y-102094981D01*
X128408623Y-102503228D01*
X126801200Y-102503228D01*
X126801200Y-100203228D01*
X128408623Y-100203228D01*
X128564523Y-100580536D01*
X128852946Y-100869462D01*
X129229981Y-101026021D01*
X129638228Y-101026377D01*
X130015536Y-100870477D01*
X130304462Y-100582054D01*
X130327655Y-100526200D01*
X134008995Y-100526200D01*
X134009000Y-100526201D01*
X134210368Y-100486145D01*
X134381080Y-100372080D01*
X134639049Y-100114110D01*
X137498701Y-100114110D01*
X137586237Y-100325964D01*
X137748183Y-100488193D01*
X137959884Y-100576099D01*
X138189110Y-100576299D01*
X138400964Y-100488763D01*
X138563193Y-100326817D01*
X138651099Y-100115116D01*
X138651099Y-100114110D01*
X142298701Y-100114110D01*
X142386237Y-100325964D01*
X142548183Y-100488193D01*
X142759884Y-100576099D01*
X142989110Y-100576299D01*
X143200964Y-100488763D01*
X143363193Y-100326817D01*
X143451099Y-100115116D01*
X143451299Y-99885890D01*
X143363763Y-99674036D01*
X143201817Y-99511807D01*
X142990116Y-99423901D01*
X142760890Y-99423701D01*
X142549036Y-99511237D01*
X142386807Y-99673183D01*
X142298901Y-99884884D01*
X142298701Y-100114110D01*
X138651099Y-100114110D01*
X138651299Y-99885890D01*
X138563763Y-99674036D01*
X138401817Y-99511807D01*
X138190116Y-99423901D01*
X137960890Y-99423701D01*
X137749036Y-99511237D01*
X137586807Y-99673183D01*
X137498901Y-99884884D01*
X137498701Y-100114110D01*
X134639049Y-100114110D01*
X135606502Y-99146657D01*
X135667583Y-99172020D01*
X136080605Y-99172380D01*
X136462325Y-99014657D01*
X136594812Y-98882400D01*
X144790789Y-98882400D01*
X144790789Y-101117600D01*
X144812225Y-101225368D01*
X144873271Y-101316729D01*
X144964632Y-101377775D01*
X145072400Y-101399211D01*
X146845051Y-101399211D01*
X150152253Y-104706412D01*
X150073961Y-104894959D01*
X150073640Y-105263424D01*
X150214348Y-105603965D01*
X150474665Y-105864736D01*
X150814959Y-106006039D01*
X151183424Y-106006360D01*
X151523965Y-105865652D01*
X151784736Y-105605335D01*
X151926039Y-105265041D01*
X151926142Y-105146182D01*
X155343800Y-105146182D01*
X155343800Y-106213818D01*
X155437139Y-106683064D01*
X155702946Y-107080872D01*
X156100754Y-107346679D01*
X156570000Y-107440018D01*
X157039246Y-107346679D01*
X157437054Y-107080872D01*
X157702861Y-106683064D01*
X157796200Y-106213818D01*
X157796200Y-105146182D01*
X157702861Y-104676936D01*
X157684863Y-104650000D01*
X158158389Y-104650000D01*
X158158389Y-105850000D01*
X158179825Y-105957768D01*
X158240871Y-106049129D01*
X158332232Y-106110175D01*
X158440000Y-106131611D01*
X159340000Y-106131611D01*
X159447768Y-106110175D01*
X159539129Y-106049129D01*
X159600175Y-105957768D01*
X159621611Y-105850000D01*
X159621611Y-105776200D01*
X160698389Y-105776200D01*
X160698389Y-105850000D01*
X160719825Y-105957768D01*
X160780871Y-106049129D01*
X160872232Y-106110175D01*
X160903133Y-106116321D01*
X160853901Y-106234884D01*
X160853701Y-106464110D01*
X160903108Y-106583684D01*
X160872232Y-106589825D01*
X160780871Y-106650871D01*
X160719825Y-106742232D01*
X160698389Y-106850000D01*
X160698389Y-108050000D01*
X160719825Y-108157768D01*
X160780871Y-108249129D01*
X160872232Y-108310175D01*
X160980000Y-108331611D01*
X161880000Y-108331611D01*
X161987768Y-108310175D01*
X162079129Y-108249129D01*
X162140175Y-108157768D01*
X162161611Y-108050000D01*
X162161611Y-107103228D01*
X169538623Y-107103228D01*
X169694523Y-107480536D01*
X169982946Y-107769462D01*
X170359981Y-107926021D01*
X170768228Y-107926377D01*
X171145536Y-107770477D01*
X171434462Y-107482054D01*
X171591021Y-107105019D01*
X171591377Y-106696772D01*
X171435477Y-106319464D01*
X171147054Y-106030538D01*
X170770019Y-105873979D01*
X170361772Y-105873623D01*
X169984464Y-106029523D01*
X169695538Y-106317946D01*
X169538979Y-106694981D01*
X169538623Y-107103228D01*
X162161611Y-107103228D01*
X162161611Y-106850000D01*
X162140175Y-106742232D01*
X162079129Y-106650871D01*
X161987768Y-106589825D01*
X161956867Y-106583679D01*
X162006099Y-106465116D01*
X162006299Y-106235890D01*
X161956892Y-106116316D01*
X161987768Y-106110175D01*
X162079129Y-106049129D01*
X162140175Y-105957768D01*
X162161611Y-105850000D01*
X162161611Y-105262549D01*
X163087959Y-104336200D01*
X169467040Y-104336200D01*
X169538968Y-104408127D01*
X169538623Y-104803228D01*
X169694523Y-105180536D01*
X169982946Y-105469462D01*
X170359981Y-105626021D01*
X170768228Y-105626377D01*
X171145536Y-105470477D01*
X171434462Y-105182054D01*
X171591021Y-104805019D01*
X171591377Y-104396772D01*
X171435477Y-104019464D01*
X171147054Y-103730538D01*
X170770019Y-103573979D01*
X170361772Y-103573623D01*
X170242192Y-103623032D01*
X170057080Y-103437920D01*
X169886368Y-103323855D01*
X169685000Y-103283799D01*
X169684995Y-103283800D01*
X162870005Y-103283800D01*
X162870000Y-103283799D01*
X162702042Y-103317209D01*
X162668632Y-103323855D01*
X162497920Y-103437920D01*
X162497918Y-103437923D01*
X161567451Y-104368389D01*
X160980000Y-104368389D01*
X160872232Y-104389825D01*
X160780871Y-104450871D01*
X160719825Y-104542232D01*
X160698389Y-104650000D01*
X160698389Y-104723800D01*
X159621611Y-104723800D01*
X159621611Y-104650000D01*
X159600175Y-104542232D01*
X159539129Y-104450871D01*
X159447768Y-104389825D01*
X159340000Y-104368389D01*
X158440000Y-104368389D01*
X158332232Y-104389825D01*
X158240871Y-104450871D01*
X158179825Y-104542232D01*
X158158389Y-104650000D01*
X157684863Y-104650000D01*
X157437054Y-104279128D01*
X157039246Y-104013321D01*
X156570000Y-103919982D01*
X156100754Y-104013321D01*
X155702946Y-104279128D01*
X155437139Y-104676936D01*
X155343800Y-105146182D01*
X151926142Y-105146182D01*
X151926360Y-104896576D01*
X151785652Y-104556035D01*
X151525335Y-104295264D01*
X151185041Y-104153961D01*
X151088036Y-104153876D01*
X147589211Y-100655051D01*
X147589211Y-98882400D01*
X152410789Y-98882400D01*
X152410789Y-101117600D01*
X152432225Y-101225368D01*
X152493271Y-101316729D01*
X152584632Y-101377775D01*
X152692400Y-101399211D01*
X154927600Y-101399211D01*
X155035368Y-101377775D01*
X155126729Y-101316729D01*
X155187775Y-101225368D01*
X155209211Y-101117600D01*
X155209211Y-98882400D01*
X155187775Y-98774632D01*
X155126729Y-98683271D01*
X155035368Y-98622225D01*
X154927600Y-98600789D01*
X152692400Y-98600789D01*
X152584632Y-98622225D01*
X152493271Y-98683271D01*
X152432225Y-98774632D01*
X152410789Y-98882400D01*
X147589211Y-98882400D01*
X147567775Y-98774632D01*
X147506729Y-98683271D01*
X147415368Y-98622225D01*
X147307600Y-98600789D01*
X145072400Y-98600789D01*
X144964632Y-98622225D01*
X144873271Y-98683271D01*
X144812225Y-98774632D01*
X144790789Y-98882400D01*
X136594812Y-98882400D01*
X136754630Y-98722861D01*
X136881612Y-98417054D01*
X138201645Y-98417054D01*
X138289181Y-98628908D01*
X138451127Y-98791137D01*
X138662828Y-98879043D01*
X138892054Y-98879243D01*
X139103908Y-98791707D01*
X139266137Y-98629761D01*
X139354043Y-98418060D01*
X139354043Y-98417054D01*
X141595757Y-98417054D01*
X141683293Y-98628908D01*
X141845239Y-98791137D01*
X142056940Y-98879043D01*
X142286166Y-98879243D01*
X142498020Y-98791707D01*
X142660249Y-98629761D01*
X142748155Y-98418060D01*
X142748355Y-98188834D01*
X142660819Y-97976980D01*
X142498873Y-97814751D01*
X142287172Y-97726845D01*
X142057946Y-97726645D01*
X141846092Y-97814181D01*
X141683863Y-97976127D01*
X141595957Y-98187828D01*
X141595757Y-98417054D01*
X139354043Y-98417054D01*
X139354243Y-98188834D01*
X139266707Y-97976980D01*
X139104761Y-97814751D01*
X138893060Y-97726845D01*
X138663834Y-97726645D01*
X138451980Y-97814181D01*
X138289751Y-97976127D01*
X138201845Y-98187828D01*
X138201645Y-98417054D01*
X136881612Y-98417054D01*
X136913020Y-98341417D01*
X136913380Y-97928395D01*
X136824840Y-97714110D01*
X139898701Y-97714110D01*
X139986237Y-97925964D01*
X140148183Y-98088193D01*
X140359884Y-98176099D01*
X140589110Y-98176299D01*
X140800964Y-98088763D01*
X140963193Y-97926817D01*
X141051099Y-97715116D01*
X141051299Y-97485890D01*
X140963763Y-97274036D01*
X140801817Y-97111807D01*
X140590116Y-97023901D01*
X140360890Y-97023701D01*
X140149036Y-97111237D01*
X139986807Y-97273183D01*
X139898901Y-97484884D01*
X139898701Y-97714110D01*
X136824840Y-97714110D01*
X136755657Y-97546675D01*
X136463861Y-97254370D01*
X136082417Y-97095980D01*
X135669395Y-97095620D01*
X135287675Y-97253343D01*
X134995370Y-97545139D01*
X134836980Y-97926583D01*
X134836620Y-98339605D01*
X134862530Y-98402311D01*
X133791040Y-99473800D01*
X130327928Y-99473800D01*
X130305477Y-99419464D01*
X130017054Y-99130538D01*
X129640019Y-98973979D01*
X129231772Y-98973623D01*
X128854464Y-99129523D01*
X128565538Y-99417946D01*
X128408979Y-99794981D01*
X128408623Y-100203228D01*
X126801200Y-100203228D01*
X126801200Y-97903228D01*
X128408623Y-97903228D01*
X128564523Y-98280536D01*
X128852946Y-98569462D01*
X129229981Y-98726021D01*
X129638228Y-98726377D01*
X130015536Y-98570477D01*
X130304462Y-98282054D01*
X130461021Y-97905019D01*
X130461377Y-97496772D01*
X130439744Y-97444416D01*
X131167959Y-96716200D01*
X147877040Y-96716200D01*
X148049136Y-96888296D01*
X148039825Y-96902232D01*
X148018389Y-97010000D01*
X148018389Y-97910000D01*
X148039825Y-98017768D01*
X148100871Y-98109129D01*
X148192232Y-98170175D01*
X148300000Y-98191611D01*
X149500000Y-98191611D01*
X149607768Y-98170175D01*
X149699129Y-98109129D01*
X149760175Y-98017768D01*
X149781611Y-97910000D01*
X149781611Y-97010000D01*
X150218389Y-97010000D01*
X150218389Y-97910000D01*
X150239825Y-98017768D01*
X150300871Y-98109129D01*
X150392232Y-98170175D01*
X150500000Y-98191611D01*
X151700000Y-98191611D01*
X151807768Y-98170175D01*
X151899129Y-98109129D01*
X151960175Y-98017768D01*
X151981611Y-97910000D01*
X151981611Y-97322549D01*
X152587959Y-96716200D01*
X158369474Y-96716200D01*
X157558463Y-97051303D01*
X156579739Y-98028320D01*
X156049405Y-99305507D01*
X156048198Y-100688425D01*
X156576303Y-101966537D01*
X157553320Y-102945261D01*
X158830507Y-103475595D01*
X160213425Y-103476802D01*
X161491537Y-102948697D01*
X161937784Y-102503228D01*
X169538623Y-102503228D01*
X169694523Y-102880536D01*
X169982946Y-103169462D01*
X170359981Y-103326021D01*
X170768228Y-103326377D01*
X171145536Y-103170477D01*
X171434462Y-102882054D01*
X171591021Y-102505019D01*
X171591377Y-102096772D01*
X171435477Y-101719464D01*
X171147054Y-101430538D01*
X170770019Y-101273979D01*
X170361772Y-101273623D01*
X169984464Y-101429523D01*
X169695538Y-101717946D01*
X169538979Y-102094981D01*
X169538623Y-102503228D01*
X161937784Y-102503228D01*
X162470261Y-101971680D01*
X163000595Y-100694493D01*
X163001802Y-99311575D01*
X162600193Y-98339605D01*
X165626620Y-98339605D01*
X165784343Y-98721325D01*
X166076139Y-99013630D01*
X166457583Y-99172020D01*
X166870605Y-99172380D01*
X166933311Y-99146471D01*
X168158918Y-100372077D01*
X168158920Y-100372080D01*
X168329632Y-100486145D01*
X168363042Y-100492791D01*
X168531000Y-100526201D01*
X168531005Y-100526200D01*
X169672072Y-100526200D01*
X169694523Y-100580536D01*
X169982946Y-100869462D01*
X170359981Y-101026021D01*
X170768228Y-101026377D01*
X171145536Y-100870477D01*
X171434462Y-100582054D01*
X171591021Y-100205019D01*
X171591377Y-99796772D01*
X171435477Y-99419464D01*
X171147054Y-99130538D01*
X170770019Y-98973979D01*
X170361772Y-98973623D01*
X169984464Y-99129523D01*
X169695538Y-99417946D01*
X169672345Y-99473800D01*
X168748959Y-99473800D01*
X167677657Y-98402497D01*
X167703020Y-98341417D01*
X167703380Y-97928395D01*
X167545657Y-97546675D01*
X167253861Y-97254370D01*
X166872417Y-97095980D01*
X166459395Y-97095620D01*
X166077675Y-97253343D01*
X165785370Y-97545139D01*
X165626980Y-97926583D01*
X165626620Y-98339605D01*
X162600193Y-98339605D01*
X162473697Y-98033463D01*
X161496680Y-97054739D01*
X160681387Y-96716200D01*
X168832040Y-96716200D01*
X169560058Y-97444217D01*
X169538979Y-97494981D01*
X169538623Y-97903228D01*
X169694523Y-98280536D01*
X169982946Y-98569462D01*
X170359981Y-98726021D01*
X170768228Y-98726377D01*
X171145536Y-98570477D01*
X171434462Y-98282054D01*
X171591021Y-97905019D01*
X171591377Y-97496772D01*
X171435477Y-97119464D01*
X171147054Y-96830538D01*
X170770019Y-96673979D01*
X170361772Y-96673623D01*
X170302339Y-96698180D01*
X169422080Y-95817920D01*
X169251368Y-95703855D01*
X169050000Y-95663799D01*
X169049995Y-95663800D01*
X157475188Y-95663800D01*
X157702861Y-95323064D01*
X157796200Y-94853818D01*
X157796200Y-94150000D01*
X158158389Y-94150000D01*
X158158389Y-95350000D01*
X158179825Y-95457768D01*
X158240871Y-95549129D01*
X158332232Y-95610175D01*
X158440000Y-95631611D01*
X159340000Y-95631611D01*
X159447768Y-95610175D01*
X159539129Y-95549129D01*
X159600175Y-95457768D01*
X159621611Y-95350000D01*
X159621611Y-95276200D01*
X159924714Y-95276200D01*
X160044884Y-95326099D01*
X160274110Y-95326299D01*
X160395359Y-95276200D01*
X160698389Y-95276200D01*
X160698389Y-95350000D01*
X160719825Y-95457768D01*
X160780871Y-95549129D01*
X160872232Y-95610175D01*
X160980000Y-95631611D01*
X161880000Y-95631611D01*
X161987768Y-95610175D01*
X161998164Y-95603228D01*
X169538623Y-95603228D01*
X169694523Y-95980536D01*
X169982946Y-96269462D01*
X170359981Y-96426021D01*
X170768228Y-96426377D01*
X171145536Y-96270477D01*
X171434462Y-95982054D01*
X171591021Y-95605019D01*
X171591377Y-95196772D01*
X171435477Y-94819464D01*
X171147054Y-94530538D01*
X170770019Y-94373979D01*
X170361772Y-94373623D01*
X169984464Y-94529523D01*
X169695538Y-94817946D01*
X169538979Y-95194981D01*
X169538623Y-95603228D01*
X161998164Y-95603228D01*
X162079129Y-95549129D01*
X162140175Y-95457768D01*
X162161611Y-95350000D01*
X162161611Y-94150000D01*
X162140175Y-94042232D01*
X162079129Y-93950871D01*
X161987768Y-93889825D01*
X161956867Y-93883679D01*
X162006099Y-93765116D01*
X162006299Y-93535890D01*
X161956892Y-93416316D01*
X161987768Y-93410175D01*
X162079129Y-93349129D01*
X162138947Y-93259605D01*
X163086620Y-93259605D01*
X163244343Y-93641325D01*
X163536139Y-93933630D01*
X163917583Y-94092020D01*
X164330605Y-94092380D01*
X164712325Y-93934657D01*
X165004630Y-93642861D01*
X165163020Y-93261417D01*
X165163380Y-92848395D01*
X165005657Y-92466675D01*
X164713861Y-92174370D01*
X164332417Y-92015980D01*
X163919395Y-92015620D01*
X163537675Y-92173343D01*
X163245370Y-92465139D01*
X163086980Y-92846583D01*
X163086620Y-93259605D01*
X162138947Y-93259605D01*
X162140175Y-93257768D01*
X162161611Y-93150000D01*
X162161611Y-91950000D01*
X162140175Y-91842232D01*
X162079129Y-91750871D01*
X161987768Y-91689825D01*
X161880000Y-91668389D01*
X160980000Y-91668389D01*
X160872232Y-91689825D01*
X160780871Y-91750871D01*
X160719825Y-91842232D01*
X160698389Y-91950000D01*
X160698389Y-93150000D01*
X160719825Y-93257768D01*
X160780871Y-93349129D01*
X160872232Y-93410175D01*
X160903133Y-93416321D01*
X160853901Y-93534884D01*
X160853701Y-93764110D01*
X160903108Y-93883684D01*
X160872232Y-93889825D01*
X160780871Y-93950871D01*
X160719825Y-94042232D01*
X160698389Y-94150000D01*
X160698389Y-94223800D01*
X160395286Y-94223800D01*
X160275116Y-94173901D01*
X160045890Y-94173701D01*
X159924641Y-94223800D01*
X159621611Y-94223800D01*
X159621611Y-94150000D01*
X159600175Y-94042232D01*
X159539129Y-93950871D01*
X159447768Y-93889825D01*
X159340000Y-93868389D01*
X158440000Y-93868389D01*
X158332232Y-93889825D01*
X158240871Y-93950871D01*
X158179825Y-94042232D01*
X158158389Y-94150000D01*
X157796200Y-94150000D01*
X157796200Y-93786182D01*
X157702861Y-93316936D01*
X157437054Y-92919128D01*
X157039246Y-92653321D01*
X156570000Y-92559982D01*
X156100754Y-92653321D01*
X155702946Y-92919128D01*
X155437139Y-93316936D01*
X155343800Y-93786182D01*
X155343800Y-94853818D01*
X155437139Y-95323064D01*
X155664812Y-95663800D01*
X154065890Y-95663800D01*
X154284736Y-95445335D01*
X154426039Y-95105041D01*
X154426360Y-94736576D01*
X154285652Y-94396035D01*
X154025335Y-94135264D01*
X153685041Y-93993961D01*
X153316576Y-93993640D01*
X152976035Y-94134348D01*
X152715264Y-94394665D01*
X152573961Y-94734959D01*
X152573640Y-95103424D01*
X152714348Y-95443965D01*
X152933800Y-95663800D01*
X152370000Y-95663800D01*
X152168632Y-95703855D01*
X151997920Y-95817920D01*
X151997918Y-95817923D01*
X151087451Y-96728389D01*
X150500000Y-96728389D01*
X150392232Y-96749825D01*
X150300871Y-96810871D01*
X150239825Y-96902232D01*
X150218389Y-97010000D01*
X149781611Y-97010000D01*
X149760175Y-96902232D01*
X149699129Y-96810871D01*
X149607768Y-96749825D01*
X149500000Y-96728389D01*
X149342551Y-96728389D01*
X149272080Y-96622920D01*
X148467080Y-95817920D01*
X148296368Y-95703855D01*
X148095000Y-95663799D01*
X148094995Y-95663800D01*
X144335188Y-95663800D01*
X144562861Y-95323064D01*
X144656200Y-94853818D01*
X144656200Y-93786182D01*
X144562861Y-93316936D01*
X144297054Y-92919128D01*
X143899246Y-92653321D01*
X143430000Y-92559982D01*
X142960754Y-92653321D01*
X142562946Y-92919128D01*
X142297139Y-93316936D01*
X142203800Y-93786182D01*
X142203800Y-94853818D01*
X142297139Y-95323064D01*
X142524812Y-95663800D01*
X130950000Y-95663800D01*
X130748632Y-95703855D01*
X130577920Y-95817920D01*
X130577918Y-95817923D01*
X129697848Y-96697992D01*
X129640019Y-96673979D01*
X129231772Y-96673623D01*
X128854464Y-96829523D01*
X128565538Y-97117946D01*
X128408979Y-97494981D01*
X128408623Y-97903228D01*
X126801200Y-97903228D01*
X126801200Y-95603228D01*
X128408623Y-95603228D01*
X128564523Y-95980536D01*
X128852946Y-96269462D01*
X129229981Y-96426021D01*
X129638228Y-96426377D01*
X130015536Y-96270477D01*
X130304462Y-95982054D01*
X130461021Y-95605019D01*
X130461377Y-95196772D01*
X130305477Y-94819464D01*
X130017054Y-94530538D01*
X129640019Y-94373979D01*
X129231772Y-94373623D01*
X128854464Y-94529523D01*
X128565538Y-94817946D01*
X128408979Y-95194981D01*
X128408623Y-95603228D01*
X126801200Y-95603228D01*
X126801200Y-93303228D01*
X128408623Y-93303228D01*
X128564523Y-93680536D01*
X128852946Y-93969462D01*
X129229981Y-94126021D01*
X129638228Y-94126377D01*
X130015536Y-93970477D01*
X130304462Y-93682054D01*
X130461021Y-93305019D01*
X130461377Y-92896772D01*
X130305477Y-92519464D01*
X130017054Y-92230538D01*
X129961200Y-92207345D01*
X129961200Y-91950000D01*
X137838389Y-91950000D01*
X137838389Y-93150000D01*
X137859825Y-93257768D01*
X137920871Y-93349129D01*
X138012232Y-93410175D01*
X138043133Y-93416321D01*
X137993901Y-93534884D01*
X137993701Y-93764110D01*
X138043108Y-93883684D01*
X138012232Y-93889825D01*
X137920871Y-93950871D01*
X137859825Y-94042232D01*
X137838389Y-94150000D01*
X137838389Y-95350000D01*
X137859825Y-95457768D01*
X137920871Y-95549129D01*
X138012232Y-95610175D01*
X138120000Y-95631611D01*
X139020000Y-95631611D01*
X139127768Y-95610175D01*
X139219129Y-95549129D01*
X139280175Y-95457768D01*
X139301611Y-95350000D01*
X139301611Y-95276200D01*
X139604714Y-95276200D01*
X139724884Y-95326099D01*
X139954110Y-95326299D01*
X140075359Y-95276200D01*
X140378389Y-95276200D01*
X140378389Y-95350000D01*
X140399825Y-95457768D01*
X140460871Y-95549129D01*
X140552232Y-95610175D01*
X140660000Y-95631611D01*
X141560000Y-95631611D01*
X141667768Y-95610175D01*
X141759129Y-95549129D01*
X141820175Y-95457768D01*
X141841611Y-95350000D01*
X141841611Y-94150000D01*
X141820175Y-94042232D01*
X141759129Y-93950871D01*
X141667768Y-93889825D01*
X141560000Y-93868389D01*
X140660000Y-93868389D01*
X140552232Y-93889825D01*
X140460871Y-93950871D01*
X140399825Y-94042232D01*
X140378389Y-94150000D01*
X140378389Y-94223800D01*
X140075286Y-94223800D01*
X139955116Y-94173901D01*
X139725890Y-94173701D01*
X139604641Y-94223800D01*
X139301611Y-94223800D01*
X139301611Y-94150000D01*
X139280175Y-94042232D01*
X139219129Y-93950871D01*
X139127768Y-93889825D01*
X139096867Y-93883679D01*
X139146099Y-93765116D01*
X139146299Y-93535890D01*
X139096892Y-93416316D01*
X139127768Y-93410175D01*
X139219129Y-93349129D01*
X139280175Y-93257768D01*
X139301611Y-93150000D01*
X139301611Y-91950000D01*
X139280175Y-91842232D01*
X139219129Y-91750871D01*
X139127768Y-91689825D01*
X139020000Y-91668389D01*
X138120000Y-91668389D01*
X138012232Y-91689825D01*
X137920871Y-91750871D01*
X137859825Y-91842232D01*
X137838389Y-91950000D01*
X129961200Y-91950000D01*
X129961200Y-91572960D01*
X130532960Y-91001200D01*
X144337040Y-91001200D01*
X148073958Y-94738117D01*
X148073640Y-95103424D01*
X148214348Y-95443965D01*
X148474665Y-95704736D01*
X148814959Y-95846039D01*
X149183424Y-95846360D01*
X149523965Y-95705652D01*
X149784736Y-95445335D01*
X149926039Y-95105041D01*
X149926040Y-95103424D01*
X150073640Y-95103424D01*
X150214348Y-95443965D01*
X150474665Y-95704736D01*
X150814959Y-95846039D01*
X151183424Y-95846360D01*
X151523965Y-95705652D01*
X151784736Y-95445335D01*
X151926039Y-95105041D01*
X151926359Y-94737801D01*
X155662959Y-91001200D01*
X169467040Y-91001200D01*
X170038800Y-91572960D01*
X170038800Y-92207072D01*
X169984464Y-92229523D01*
X169695538Y-92517946D01*
X169538979Y-92894981D01*
X169538623Y-93303228D01*
X169694523Y-93680536D01*
X169982946Y-93969462D01*
X170359981Y-94126021D01*
X170768228Y-94126377D01*
X171145536Y-93970477D01*
X171434462Y-93682054D01*
X171591021Y-93305019D01*
X171591377Y-92896772D01*
X171435477Y-92519464D01*
X171147054Y-92230538D01*
X171091200Y-92207345D01*
X171091200Y-91355005D01*
X171091201Y-91355000D01*
X171051145Y-91153632D01*
X170937080Y-90982920D01*
X170057080Y-90102920D01*
X169886368Y-89988855D01*
X169685000Y-89948799D01*
X169684995Y-89948800D01*
X155445000Y-89948800D01*
X155243632Y-89988855D01*
X155072920Y-90102920D01*
X155072918Y-90102923D01*
X151181882Y-93993958D01*
X150816576Y-93993640D01*
X150476035Y-94134348D01*
X150215264Y-94394665D01*
X150073961Y-94734959D01*
X150073640Y-95103424D01*
X149926040Y-95103424D01*
X149926360Y-94736576D01*
X149785652Y-94396035D01*
X149525335Y-94135264D01*
X149185041Y-93993961D01*
X148817800Y-93993641D01*
X145564160Y-90740000D01*
X148239982Y-90740000D01*
X148333321Y-91209246D01*
X148599128Y-91607054D01*
X148996936Y-91872861D01*
X149466182Y-91966200D01*
X150533818Y-91966200D01*
X151003064Y-91872861D01*
X151400872Y-91607054D01*
X151666679Y-91209246D01*
X151760018Y-90740000D01*
X151666679Y-90270754D01*
X151400872Y-89872946D01*
X151003064Y-89607139D01*
X150533818Y-89513800D01*
X149466182Y-89513800D01*
X148996936Y-89607139D01*
X148599128Y-89872946D01*
X148333321Y-90270754D01*
X148239982Y-90740000D01*
X145564160Y-90740000D01*
X144927080Y-90102920D01*
X144756368Y-89988855D01*
X144555000Y-89948799D01*
X144554995Y-89948800D01*
X130315005Y-89948800D01*
X130315000Y-89948799D01*
X130113632Y-89988855D01*
X129942920Y-90102920D01*
X129062920Y-90982920D01*
X128948855Y-91153632D01*
X128908799Y-91355000D01*
X128908800Y-91355005D01*
X128908800Y-92207072D01*
X128854464Y-92229523D01*
X128565538Y-92517946D01*
X128408979Y-92894981D01*
X128408623Y-93303228D01*
X126801200Y-93303228D01*
X126801200Y-89529668D01*
X126859845Y-89234839D01*
X127010047Y-89010046D01*
X127234838Y-88859845D01*
X127529668Y-88801200D01*
X172470332Y-88801200D01*
X172765161Y-88859845D01*
X172765161Y-88859845D01*
G37*
X172765161Y-88859845D02*
X172989954Y-89010047D01*
X173140155Y-89234838D01*
X173198800Y-89529668D01*
X173198800Y-111198800D01*
X126801200Y-111198800D01*
X126801200Y-109260000D01*
X148239982Y-109260000D01*
X148333321Y-109729246D01*
X148599128Y-110127054D01*
X148996936Y-110392861D01*
X149466182Y-110486200D01*
X150533818Y-110486200D01*
X151003064Y-110392861D01*
X151400872Y-110127054D01*
X151666679Y-109729246D01*
X151760018Y-109260000D01*
X151666679Y-108790754D01*
X151400872Y-108392946D01*
X151003064Y-108127139D01*
X150533818Y-108033800D01*
X149466182Y-108033800D01*
X148996936Y-108127139D01*
X148599128Y-108392946D01*
X148333321Y-108790754D01*
X148239982Y-109260000D01*
X126801200Y-109260000D01*
X126801200Y-107103228D01*
X128408623Y-107103228D01*
X128564523Y-107480536D01*
X128852946Y-107769462D01*
X129229981Y-107926021D01*
X129638228Y-107926377D01*
X130015536Y-107770477D01*
X130304462Y-107482054D01*
X130461021Y-107105019D01*
X130461377Y-106696772D01*
X130305477Y-106319464D01*
X130017054Y-106030538D01*
X129640019Y-105873979D01*
X129231772Y-105873623D01*
X128854464Y-106029523D01*
X128565538Y-106317946D01*
X128408979Y-106694981D01*
X128408623Y-107103228D01*
X126801200Y-107103228D01*
X126801200Y-105705605D01*
X132296620Y-105705605D01*
X132454343Y-106087325D01*
X132746139Y-106379630D01*
X133127583Y-106538020D01*
X133540605Y-106538380D01*
X133922325Y-106380657D01*
X134214630Y-106088861D01*
X134373020Y-105707417D01*
X134373380Y-105294395D01*
X134215657Y-104912675D01*
X133923861Y-104620370D01*
X133542417Y-104461980D01*
X133129395Y-104461620D01*
X132747675Y-104619343D01*
X132455370Y-104911139D01*
X132296980Y-105292583D01*
X132296620Y-105705605D01*
X126801200Y-105705605D01*
X126801200Y-104803228D01*
X128408623Y-104803228D01*
X128564523Y-105180536D01*
X128852946Y-105469462D01*
X129229981Y-105626021D01*
X129638228Y-105626377D01*
X130015536Y-105470477D01*
X130304462Y-105182054D01*
X130461021Y-104805019D01*
X130461367Y-104407792D01*
X130532959Y-104336200D01*
X136912040Y-104336200D01*
X137838389Y-105262548D01*
X137838389Y-105850000D01*
X137859825Y-105957768D01*
X137920871Y-106049129D01*
X138012232Y-106110175D01*
X138043133Y-106116321D01*
X137993901Y-106234884D01*
X137993701Y-106464110D01*
X138043108Y-106583684D01*
X138012232Y-106589825D01*
X137920871Y-106650871D01*
X137859825Y-106742232D01*
X137838389Y-106850000D01*
X137838389Y-108050000D01*
X137859825Y-108157768D01*
X137920871Y-108249129D01*
X138012232Y-108310175D01*
X138120000Y-108331611D01*
X139020000Y-108331611D01*
X139127768Y-108310175D01*
X139219129Y-108249129D01*
X139280175Y-108157768D01*
X139301611Y-108050000D01*
X139301611Y-106850000D01*
X139280175Y-106742232D01*
X139219129Y-106650871D01*
X139127768Y-106589825D01*
X139096867Y-106583679D01*
X139146099Y-106465116D01*
X139146299Y-106235890D01*
X139096892Y-106116316D01*
X139127768Y-106110175D01*
X139219129Y-106049129D01*
X139280175Y-105957768D01*
X139301611Y-105850000D01*
X139301611Y-105776200D01*
X140378389Y-105776200D01*
X140378389Y-105850000D01*
X140399825Y-105957768D01*
X140460871Y-106049129D01*
X140552232Y-106110175D01*
X140660000Y-106131611D01*
X141560000Y-106131611D01*
X141667768Y-106110175D01*
X141759129Y-106049129D01*
X141820175Y-105957768D01*
X141841611Y-105850000D01*
X141841611Y-105146182D01*
X142203800Y-105146182D01*
X142203800Y-106213818D01*
X142297139Y-106683064D01*
X142562946Y-107080872D01*
X142960754Y-107346679D01*
X143430000Y-107440018D01*
X143899246Y-107346679D01*
X144297054Y-107080872D01*
X144562861Y-106683064D01*
X144656200Y-106213818D01*
X144656200Y-105263424D01*
X145573640Y-105263424D01*
X145714348Y-105603965D01*
X145974665Y-105864736D01*
X146314959Y-106006039D01*
X146683424Y-106006360D01*
X147023965Y-105865652D01*
X147284736Y-105605335D01*
X147426039Y-105265041D01*
X147426040Y-105263424D01*
X148073640Y-105263424D01*
X148214348Y-105603965D01*
X148474665Y-105864736D01*
X148814959Y-106006039D01*
X149183424Y-106006360D01*
X149523965Y-105865652D01*
X149784736Y-105605335D01*
X149926039Y-105265041D01*
X149926360Y-104896576D01*
X149785652Y-104556035D01*
X149525335Y-104295264D01*
X149185041Y-104153961D01*
X148816576Y-104153640D01*
X148476035Y-104294348D01*
X148215264Y-104554665D01*
X148073961Y-104894959D01*
X148073640Y-105263424D01*
X147426040Y-105263424D01*
X147426360Y-104896576D01*
X147285652Y-104556035D01*
X147025335Y-104295264D01*
X146685041Y-104153961D01*
X146316576Y-104153640D01*
X145976035Y-104294348D01*
X145715264Y-104554665D01*
X145573961Y-104894959D01*
X145573640Y-105263424D01*
X144656200Y-105263424D01*
X144656200Y-105146182D01*
X144562861Y-104676936D01*
X144297054Y-104279128D01*
X143899246Y-104013321D01*
X143430000Y-103919982D01*
X142960754Y-104013321D01*
X142562946Y-104279128D01*
X142297139Y-104676936D01*
X142203800Y-105146182D01*
X141841611Y-105146182D01*
X141841611Y-104650000D01*
X141820175Y-104542232D01*
X141759129Y-104450871D01*
X141667768Y-104389825D01*
X141560000Y-104368389D01*
X140660000Y-104368389D01*
X140552232Y-104389825D01*
X140460871Y-104450871D01*
X140399825Y-104542232D01*
X140378389Y-104650000D01*
X140378389Y-104723800D01*
X139301611Y-104723800D01*
X139301611Y-104650000D01*
X139280175Y-104542232D01*
X139219129Y-104450871D01*
X139127768Y-104389825D01*
X139020000Y-104368389D01*
X138432548Y-104368389D01*
X137502080Y-103437920D01*
X137331368Y-103323855D01*
X137130000Y-103283799D01*
X137129995Y-103283800D01*
X130315005Y-103283800D01*
X130315000Y-103283799D01*
X130113632Y-103323855D01*
X129942920Y-103437920D01*
X129942918Y-103437923D01*
X129757909Y-103622931D01*
X129640019Y-103573979D01*
X129231772Y-103573623D01*
X128854464Y-103729523D01*
X128565538Y-104017946D01*
X128408979Y-104394981D01*
X128408623Y-104803228D01*
X126801200Y-104803228D01*
X126801200Y-102503228D01*
X128408623Y-102503228D01*
X128564523Y-102880536D01*
X128852946Y-103169462D01*
X129229981Y-103326021D01*
X129638228Y-103326377D01*
X130015536Y-103170477D01*
X130304462Y-102882054D01*
X130457246Y-102514110D01*
X139898701Y-102514110D01*
X139986237Y-102725964D01*
X140148183Y-102888193D01*
X140359884Y-102976099D01*
X140589110Y-102976299D01*
X140800964Y-102888763D01*
X140963193Y-102726817D01*
X141051099Y-102515116D01*
X141051299Y-102285890D01*
X140963763Y-102074036D01*
X140801817Y-101911807D01*
X140590116Y-101823901D01*
X140360890Y-101823701D01*
X140149036Y-101911237D01*
X139986807Y-102073183D01*
X139898901Y-102284884D01*
X139898701Y-102514110D01*
X130457246Y-102514110D01*
X130461021Y-102505019D01*
X130461377Y-102096772D01*
X130343368Y-101811166D01*
X138201645Y-101811166D01*
X138289181Y-102023020D01*
X138451127Y-102185249D01*
X138662828Y-102273155D01*
X138892054Y-102273355D01*
X139103908Y-102185819D01*
X139266137Y-102023873D01*
X139354043Y-101812172D01*
X139354043Y-101811166D01*
X141595757Y-101811166D01*
X141683293Y-102023020D01*
X141845239Y-102185249D01*
X142056940Y-102273155D01*
X142286166Y-102273355D01*
X142498020Y-102185819D01*
X142660249Y-102023873D01*
X142748155Y-101812172D01*
X142748355Y-101582946D01*
X142660819Y-101371092D01*
X142498873Y-101208863D01*
X142287172Y-101120957D01*
X142057946Y-101120757D01*
X141846092Y-101208293D01*
X141683863Y-101370239D01*
X141595957Y-101581940D01*
X141595757Y-101811166D01*
X139354043Y-101811166D01*
X139354243Y-101582946D01*
X139266707Y-101371092D01*
X139104761Y-101208863D01*
X138893060Y-101120957D01*
X138663834Y-101120757D01*
X138451980Y-101208293D01*
X138289751Y-101370239D01*
X138201845Y-101581940D01*
X138201645Y-101811166D01*
X130343368Y-101811166D01*
X130305477Y-101719464D01*
X130017054Y-101430538D01*
X129640019Y-101273979D01*
X129231772Y-101273623D01*
X128854464Y-101429523D01*
X128565538Y-101717946D01*
X128408979Y-102094981D01*
X128408623Y-102503228D01*
X126801200Y-102503228D01*
X126801200Y-100203228D01*
X128408623Y-100203228D01*
X128564523Y-100580536D01*
X128852946Y-100869462D01*
X129229981Y-101026021D01*
X129638228Y-101026377D01*
X130015536Y-100870477D01*
X130304462Y-100582054D01*
X130327655Y-100526200D01*
X134008995Y-100526200D01*
X134009000Y-100526201D01*
X134210368Y-100486145D01*
X134381080Y-100372080D01*
X134639049Y-100114110D01*
X137498701Y-100114110D01*
X137586237Y-100325964D01*
X137748183Y-100488193D01*
X137959884Y-100576099D01*
X138189110Y-100576299D01*
X138400964Y-100488763D01*
X138563193Y-100326817D01*
X138651099Y-100115116D01*
X138651099Y-100114110D01*
X142298701Y-100114110D01*
X142386237Y-100325964D01*
X142548183Y-100488193D01*
X142759884Y-100576099D01*
X142989110Y-100576299D01*
X143200964Y-100488763D01*
X143363193Y-100326817D01*
X143451099Y-100115116D01*
X143451299Y-99885890D01*
X143363763Y-99674036D01*
X143201817Y-99511807D01*
X142990116Y-99423901D01*
X142760890Y-99423701D01*
X142549036Y-99511237D01*
X142386807Y-99673183D01*
X142298901Y-99884884D01*
X142298701Y-100114110D01*
X138651099Y-100114110D01*
X138651299Y-99885890D01*
X138563763Y-99674036D01*
X138401817Y-99511807D01*
X138190116Y-99423901D01*
X137960890Y-99423701D01*
X137749036Y-99511237D01*
X137586807Y-99673183D01*
X137498901Y-99884884D01*
X137498701Y-100114110D01*
X134639049Y-100114110D01*
X135606502Y-99146657D01*
X135667583Y-99172020D01*
X136080605Y-99172380D01*
X136462325Y-99014657D01*
X136594812Y-98882400D01*
X144790789Y-98882400D01*
X144790789Y-101117600D01*
X144812225Y-101225368D01*
X144873271Y-101316729D01*
X144964632Y-101377775D01*
X145072400Y-101399211D01*
X146845051Y-101399211D01*
X150152253Y-104706412D01*
X150073961Y-104894959D01*
X150073640Y-105263424D01*
X150214348Y-105603965D01*
X150474665Y-105864736D01*
X150814959Y-106006039D01*
X151183424Y-106006360D01*
X151523965Y-105865652D01*
X151784736Y-105605335D01*
X151926039Y-105265041D01*
X151926142Y-105146182D01*
X155343800Y-105146182D01*
X155343800Y-106213818D01*
X155437139Y-106683064D01*
X155702946Y-107080872D01*
X156100754Y-107346679D01*
X156570000Y-107440018D01*
X157039246Y-107346679D01*
X157437054Y-107080872D01*
X157702861Y-106683064D01*
X157796200Y-106213818D01*
X157796200Y-105146182D01*
X157702861Y-104676936D01*
X157684863Y-104650000D01*
X158158389Y-104650000D01*
X158158389Y-105850000D01*
X158179825Y-105957768D01*
X158240871Y-106049129D01*
X158332232Y-106110175D01*
X158440000Y-106131611D01*
X159340000Y-106131611D01*
X159447768Y-106110175D01*
X159539129Y-106049129D01*
X159600175Y-105957768D01*
X159621611Y-105850000D01*
X159621611Y-105776200D01*
X160698389Y-105776200D01*
X160698389Y-105850000D01*
X160719825Y-105957768D01*
X160780871Y-106049129D01*
X160872232Y-106110175D01*
X160903133Y-106116321D01*
X160853901Y-106234884D01*
X160853701Y-106464110D01*
X160903108Y-106583684D01*
X160872232Y-106589825D01*
X160780871Y-106650871D01*
X160719825Y-106742232D01*
X160698389Y-106850000D01*
X160698389Y-108050000D01*
X160719825Y-108157768D01*
X160780871Y-108249129D01*
X160872232Y-108310175D01*
X160980000Y-108331611D01*
X161880000Y-108331611D01*
X161987768Y-108310175D01*
X162079129Y-108249129D01*
X162140175Y-108157768D01*
X162161611Y-108050000D01*
X162161611Y-107103228D01*
X169538623Y-107103228D01*
X169694523Y-107480536D01*
X169982946Y-107769462D01*
X170359981Y-107926021D01*
X170768228Y-107926377D01*
X171145536Y-107770477D01*
X171434462Y-107482054D01*
X171591021Y-107105019D01*
X171591377Y-106696772D01*
X171435477Y-106319464D01*
X171147054Y-106030538D01*
X170770019Y-105873979D01*
X170361772Y-105873623D01*
X169984464Y-106029523D01*
X169695538Y-106317946D01*
X169538979Y-106694981D01*
X169538623Y-107103228D01*
X162161611Y-107103228D01*
X162161611Y-106850000D01*
X162140175Y-106742232D01*
X162079129Y-106650871D01*
X161987768Y-106589825D01*
X161956867Y-106583679D01*
X162006099Y-106465116D01*
X162006299Y-106235890D01*
X161956892Y-106116316D01*
X161987768Y-106110175D01*
X162079129Y-106049129D01*
X162140175Y-105957768D01*
X162161611Y-105850000D01*
X162161611Y-105262549D01*
X163087959Y-104336200D01*
X169467040Y-104336200D01*
X169538968Y-104408127D01*
X169538623Y-104803228D01*
X169694523Y-105180536D01*
X169982946Y-105469462D01*
X170359981Y-105626021D01*
X170768228Y-105626377D01*
X171145536Y-105470477D01*
X171434462Y-105182054D01*
X171591021Y-104805019D01*
X171591377Y-104396772D01*
X171435477Y-104019464D01*
X171147054Y-103730538D01*
X170770019Y-103573979D01*
X170361772Y-103573623D01*
X170242192Y-103623032D01*
X170057080Y-103437920D01*
X169886368Y-103323855D01*
X169685000Y-103283799D01*
X169684995Y-103283800D01*
X162870005Y-103283800D01*
X162870000Y-103283799D01*
X162702042Y-103317209D01*
X162668632Y-103323855D01*
X162497920Y-103437920D01*
X162497918Y-103437923D01*
X161567451Y-104368389D01*
X160980000Y-104368389D01*
X160872232Y-104389825D01*
X160780871Y-104450871D01*
X160719825Y-104542232D01*
X160698389Y-104650000D01*
X160698389Y-104723800D01*
X159621611Y-104723800D01*
X159621611Y-104650000D01*
X159600175Y-104542232D01*
X159539129Y-104450871D01*
X159447768Y-104389825D01*
X159340000Y-104368389D01*
X158440000Y-104368389D01*
X158332232Y-104389825D01*
X158240871Y-104450871D01*
X158179825Y-104542232D01*
X158158389Y-104650000D01*
X157684863Y-104650000D01*
X157437054Y-104279128D01*
X157039246Y-104013321D01*
X156570000Y-103919982D01*
X156100754Y-104013321D01*
X155702946Y-104279128D01*
X155437139Y-104676936D01*
X155343800Y-105146182D01*
X151926142Y-105146182D01*
X151926360Y-104896576D01*
X151785652Y-104556035D01*
X151525335Y-104295264D01*
X151185041Y-104153961D01*
X151088036Y-104153876D01*
X147589211Y-100655051D01*
X147589211Y-98882400D01*
X152410789Y-98882400D01*
X152410789Y-101117600D01*
X152432225Y-101225368D01*
X152493271Y-101316729D01*
X152584632Y-101377775D01*
X152692400Y-101399211D01*
X154927600Y-101399211D01*
X155035368Y-101377775D01*
X155126729Y-101316729D01*
X155187775Y-101225368D01*
X155209211Y-101117600D01*
X155209211Y-98882400D01*
X155187775Y-98774632D01*
X155126729Y-98683271D01*
X155035368Y-98622225D01*
X154927600Y-98600789D01*
X152692400Y-98600789D01*
X152584632Y-98622225D01*
X152493271Y-98683271D01*
X152432225Y-98774632D01*
X152410789Y-98882400D01*
X147589211Y-98882400D01*
X147567775Y-98774632D01*
X147506729Y-98683271D01*
X147415368Y-98622225D01*
X147307600Y-98600789D01*
X145072400Y-98600789D01*
X144964632Y-98622225D01*
X144873271Y-98683271D01*
X144812225Y-98774632D01*
X144790789Y-98882400D01*
X136594812Y-98882400D01*
X136754630Y-98722861D01*
X136881612Y-98417054D01*
X138201645Y-98417054D01*
X138289181Y-98628908D01*
X138451127Y-98791137D01*
X138662828Y-98879043D01*
X138892054Y-98879243D01*
X139103908Y-98791707D01*
X139266137Y-98629761D01*
X139354043Y-98418060D01*
X139354043Y-98417054D01*
X141595757Y-98417054D01*
X141683293Y-98628908D01*
X141845239Y-98791137D01*
X142056940Y-98879043D01*
X142286166Y-98879243D01*
X142498020Y-98791707D01*
X142660249Y-98629761D01*
X142748155Y-98418060D01*
X142748355Y-98188834D01*
X142660819Y-97976980D01*
X142498873Y-97814751D01*
X142287172Y-97726845D01*
X142057946Y-97726645D01*
X141846092Y-97814181D01*
X141683863Y-97976127D01*
X141595957Y-98187828D01*
X141595757Y-98417054D01*
X139354043Y-98417054D01*
X139354243Y-98188834D01*
X139266707Y-97976980D01*
X139104761Y-97814751D01*
X138893060Y-97726845D01*
X138663834Y-97726645D01*
X138451980Y-97814181D01*
X138289751Y-97976127D01*
X138201845Y-98187828D01*
X138201645Y-98417054D01*
X136881612Y-98417054D01*
X136913020Y-98341417D01*
X136913380Y-97928395D01*
X136824840Y-97714110D01*
X139898701Y-97714110D01*
X139986237Y-97925964D01*
X140148183Y-98088193D01*
X140359884Y-98176099D01*
X140589110Y-98176299D01*
X140800964Y-98088763D01*
X140963193Y-97926817D01*
X141051099Y-97715116D01*
X141051299Y-97485890D01*
X140963763Y-97274036D01*
X140801817Y-97111807D01*
X140590116Y-97023901D01*
X140360890Y-97023701D01*
X140149036Y-97111237D01*
X139986807Y-97273183D01*
X139898901Y-97484884D01*
X139898701Y-97714110D01*
X136824840Y-97714110D01*
X136755657Y-97546675D01*
X136463861Y-97254370D01*
X136082417Y-97095980D01*
X135669395Y-97095620D01*
X135287675Y-97253343D01*
X134995370Y-97545139D01*
X134836980Y-97926583D01*
X134836620Y-98339605D01*
X134862530Y-98402311D01*
X133791040Y-99473800D01*
X130327928Y-99473800D01*
X130305477Y-99419464D01*
X130017054Y-99130538D01*
X129640019Y-98973979D01*
X129231772Y-98973623D01*
X128854464Y-99129523D01*
X128565538Y-99417946D01*
X128408979Y-99794981D01*
X128408623Y-100203228D01*
X126801200Y-100203228D01*
X126801200Y-97903228D01*
X128408623Y-97903228D01*
X128564523Y-98280536D01*
X128852946Y-98569462D01*
X129229981Y-98726021D01*
X129638228Y-98726377D01*
X130015536Y-98570477D01*
X130304462Y-98282054D01*
X130461021Y-97905019D01*
X130461377Y-97496772D01*
X130439744Y-97444416D01*
X131167959Y-96716200D01*
X147877040Y-96716200D01*
X148049136Y-96888296D01*
X148039825Y-96902232D01*
X148018389Y-97010000D01*
X148018389Y-97910000D01*
X148039825Y-98017768D01*
X148100871Y-98109129D01*
X148192232Y-98170175D01*
X148300000Y-98191611D01*
X149500000Y-98191611D01*
X149607768Y-98170175D01*
X149699129Y-98109129D01*
X149760175Y-98017768D01*
X149781611Y-97910000D01*
X149781611Y-97010000D01*
X150218389Y-97010000D01*
X150218389Y-97910000D01*
X150239825Y-98017768D01*
X150300871Y-98109129D01*
X150392232Y-98170175D01*
X150500000Y-98191611D01*
X151700000Y-98191611D01*
X151807768Y-98170175D01*
X151899129Y-98109129D01*
X151960175Y-98017768D01*
X151981611Y-97910000D01*
X151981611Y-97322549D01*
X152587959Y-96716200D01*
X158369474Y-96716200D01*
X157558463Y-97051303D01*
X156579739Y-98028320D01*
X156049405Y-99305507D01*
X156048198Y-100688425D01*
X156576303Y-101966537D01*
X157553320Y-102945261D01*
X158830507Y-103475595D01*
X160213425Y-103476802D01*
X161491537Y-102948697D01*
X161937784Y-102503228D01*
X169538623Y-102503228D01*
X169694523Y-102880536D01*
X169982946Y-103169462D01*
X170359981Y-103326021D01*
X170768228Y-103326377D01*
X171145536Y-103170477D01*
X171434462Y-102882054D01*
X171591021Y-102505019D01*
X171591377Y-102096772D01*
X171435477Y-101719464D01*
X171147054Y-101430538D01*
X170770019Y-101273979D01*
X170361772Y-101273623D01*
X169984464Y-101429523D01*
X169695538Y-101717946D01*
X169538979Y-102094981D01*
X169538623Y-102503228D01*
X161937784Y-102503228D01*
X162470261Y-101971680D01*
X163000595Y-100694493D01*
X163001802Y-99311575D01*
X162600193Y-98339605D01*
X165626620Y-98339605D01*
X165784343Y-98721325D01*
X166076139Y-99013630D01*
X166457583Y-99172020D01*
X166870605Y-99172380D01*
X166933311Y-99146471D01*
X168158918Y-100372077D01*
X168158920Y-100372080D01*
X168329632Y-100486145D01*
X168363042Y-100492791D01*
X168531000Y-100526201D01*
X168531005Y-100526200D01*
X169672072Y-100526200D01*
X169694523Y-100580536D01*
X169982946Y-100869462D01*
X170359981Y-101026021D01*
X170768228Y-101026377D01*
X171145536Y-100870477D01*
X171434462Y-100582054D01*
X171591021Y-100205019D01*
X171591377Y-99796772D01*
X171435477Y-99419464D01*
X171147054Y-99130538D01*
X170770019Y-98973979D01*
X170361772Y-98973623D01*
X169984464Y-99129523D01*
X169695538Y-99417946D01*
X169672345Y-99473800D01*
X168748959Y-99473800D01*
X167677657Y-98402497D01*
X167703020Y-98341417D01*
X167703380Y-97928395D01*
X167545657Y-97546675D01*
X167253861Y-97254370D01*
X166872417Y-97095980D01*
X166459395Y-97095620D01*
X166077675Y-97253343D01*
X165785370Y-97545139D01*
X165626980Y-97926583D01*
X165626620Y-98339605D01*
X162600193Y-98339605D01*
X162473697Y-98033463D01*
X161496680Y-97054739D01*
X160681387Y-96716200D01*
X168832040Y-96716200D01*
X169560058Y-97444217D01*
X169538979Y-97494981D01*
X169538623Y-97903228D01*
X169694523Y-98280536D01*
X169982946Y-98569462D01*
X170359981Y-98726021D01*
X170768228Y-98726377D01*
X171145536Y-98570477D01*
X171434462Y-98282054D01*
X171591021Y-97905019D01*
X171591377Y-97496772D01*
X171435477Y-97119464D01*
X171147054Y-96830538D01*
X170770019Y-96673979D01*
X170361772Y-96673623D01*
X170302339Y-96698180D01*
X169422080Y-95817920D01*
X169251368Y-95703855D01*
X169050000Y-95663799D01*
X169049995Y-95663800D01*
X157475188Y-95663800D01*
X157702861Y-95323064D01*
X157796200Y-94853818D01*
X157796200Y-94150000D01*
X158158389Y-94150000D01*
X158158389Y-95350000D01*
X158179825Y-95457768D01*
X158240871Y-95549129D01*
X158332232Y-95610175D01*
X158440000Y-95631611D01*
X159340000Y-95631611D01*
X159447768Y-95610175D01*
X159539129Y-95549129D01*
X159600175Y-95457768D01*
X159621611Y-95350000D01*
X159621611Y-95276200D01*
X159924714Y-95276200D01*
X160044884Y-95326099D01*
X160274110Y-95326299D01*
X160395359Y-95276200D01*
X160698389Y-95276200D01*
X160698389Y-95350000D01*
X160719825Y-95457768D01*
X160780871Y-95549129D01*
X160872232Y-95610175D01*
X160980000Y-95631611D01*
X161880000Y-95631611D01*
X161987768Y-95610175D01*
X161998164Y-95603228D01*
X169538623Y-95603228D01*
X169694523Y-95980536D01*
X169982946Y-96269462D01*
X170359981Y-96426021D01*
X170768228Y-96426377D01*
X171145536Y-96270477D01*
X171434462Y-95982054D01*
X171591021Y-95605019D01*
X171591377Y-95196772D01*
X171435477Y-94819464D01*
X171147054Y-94530538D01*
X170770019Y-94373979D01*
X170361772Y-94373623D01*
X169984464Y-94529523D01*
X169695538Y-94817946D01*
X169538979Y-95194981D01*
X169538623Y-95603228D01*
X161998164Y-95603228D01*
X162079129Y-95549129D01*
X162140175Y-95457768D01*
X162161611Y-95350000D01*
X162161611Y-94150000D01*
X162140175Y-94042232D01*
X162079129Y-93950871D01*
X161987768Y-93889825D01*
X161956867Y-93883679D01*
X162006099Y-93765116D01*
X162006299Y-93535890D01*
X161956892Y-93416316D01*
X161987768Y-93410175D01*
X162079129Y-93349129D01*
X162138947Y-93259605D01*
X163086620Y-93259605D01*
X163244343Y-93641325D01*
X163536139Y-93933630D01*
X163917583Y-94092020D01*
X164330605Y-94092380D01*
X164712325Y-93934657D01*
X165004630Y-93642861D01*
X165163020Y-93261417D01*
X165163380Y-92848395D01*
X165005657Y-92466675D01*
X164713861Y-92174370D01*
X164332417Y-92015980D01*
X163919395Y-92015620D01*
X163537675Y-92173343D01*
X163245370Y-92465139D01*
X163086980Y-92846583D01*
X163086620Y-93259605D01*
X162138947Y-93259605D01*
X162140175Y-93257768D01*
X162161611Y-93150000D01*
X162161611Y-91950000D01*
X162140175Y-91842232D01*
X162079129Y-91750871D01*
X161987768Y-91689825D01*
X161880000Y-91668389D01*
X160980000Y-91668389D01*
X160872232Y-91689825D01*
X160780871Y-91750871D01*
X160719825Y-91842232D01*
X160698389Y-91950000D01*
X160698389Y-93150000D01*
X160719825Y-93257768D01*
X160780871Y-93349129D01*
X160872232Y-93410175D01*
X160903133Y-93416321D01*
X160853901Y-93534884D01*
X160853701Y-93764110D01*
X160903108Y-93883684D01*
X160872232Y-93889825D01*
X160780871Y-93950871D01*
X160719825Y-94042232D01*
X160698389Y-94150000D01*
X160698389Y-94223800D01*
X160395286Y-94223800D01*
X160275116Y-94173901D01*
X160045890Y-94173701D01*
X159924641Y-94223800D01*
X159621611Y-94223800D01*
X159621611Y-94150000D01*
X159600175Y-94042232D01*
X159539129Y-93950871D01*
X159447768Y-93889825D01*
X159340000Y-93868389D01*
X158440000Y-93868389D01*
X158332232Y-93889825D01*
X158240871Y-93950871D01*
X158179825Y-94042232D01*
X158158389Y-94150000D01*
X157796200Y-94150000D01*
X157796200Y-93786182D01*
X157702861Y-93316936D01*
X157437054Y-92919128D01*
X157039246Y-92653321D01*
X156570000Y-92559982D01*
X156100754Y-92653321D01*
X155702946Y-92919128D01*
X155437139Y-93316936D01*
X155343800Y-93786182D01*
X155343800Y-94853818D01*
X155437139Y-95323064D01*
X155664812Y-95663800D01*
X154065890Y-95663800D01*
X154284736Y-95445335D01*
X154426039Y-95105041D01*
X154426360Y-94736576D01*
X154285652Y-94396035D01*
X154025335Y-94135264D01*
X153685041Y-93993961D01*
X153316576Y-93993640D01*
X152976035Y-94134348D01*
X152715264Y-94394665D01*
X152573961Y-94734959D01*
X152573640Y-95103424D01*
X152714348Y-95443965D01*
X152933800Y-95663800D01*
X152370000Y-95663800D01*
X152168632Y-95703855D01*
X151997920Y-95817920D01*
X151997918Y-95817923D01*
X151087451Y-96728389D01*
X150500000Y-96728389D01*
X150392232Y-96749825D01*
X150300871Y-96810871D01*
X150239825Y-96902232D01*
X150218389Y-97010000D01*
X149781611Y-97010000D01*
X149760175Y-96902232D01*
X149699129Y-96810871D01*
X149607768Y-96749825D01*
X149500000Y-96728389D01*
X149342551Y-96728389D01*
X149272080Y-96622920D01*
X148467080Y-95817920D01*
X148296368Y-95703855D01*
X148095000Y-95663799D01*
X148094995Y-95663800D01*
X144335188Y-95663800D01*
X144562861Y-95323064D01*
X144656200Y-94853818D01*
X144656200Y-93786182D01*
X144562861Y-93316936D01*
X144297054Y-92919128D01*
X143899246Y-92653321D01*
X143430000Y-92559982D01*
X142960754Y-92653321D01*
X142562946Y-92919128D01*
X142297139Y-93316936D01*
X142203800Y-93786182D01*
X142203800Y-94853818D01*
X142297139Y-95323064D01*
X142524812Y-95663800D01*
X130950000Y-95663800D01*
X130748632Y-95703855D01*
X130577920Y-95817920D01*
X130577918Y-95817923D01*
X129697848Y-96697992D01*
X129640019Y-96673979D01*
X129231772Y-96673623D01*
X128854464Y-96829523D01*
X128565538Y-97117946D01*
X128408979Y-97494981D01*
X128408623Y-97903228D01*
X126801200Y-97903228D01*
X126801200Y-95603228D01*
X128408623Y-95603228D01*
X128564523Y-95980536D01*
X128852946Y-96269462D01*
X129229981Y-96426021D01*
X129638228Y-96426377D01*
X130015536Y-96270477D01*
X130304462Y-95982054D01*
X130461021Y-95605019D01*
X130461377Y-95196772D01*
X130305477Y-94819464D01*
X130017054Y-94530538D01*
X129640019Y-94373979D01*
X129231772Y-94373623D01*
X128854464Y-94529523D01*
X128565538Y-94817946D01*
X128408979Y-95194981D01*
X128408623Y-95603228D01*
X126801200Y-95603228D01*
X126801200Y-93303228D01*
X128408623Y-93303228D01*
X128564523Y-93680536D01*
X128852946Y-93969462D01*
X129229981Y-94126021D01*
X129638228Y-94126377D01*
X130015536Y-93970477D01*
X130304462Y-93682054D01*
X130461021Y-93305019D01*
X130461377Y-92896772D01*
X130305477Y-92519464D01*
X130017054Y-92230538D01*
X129961200Y-92207345D01*
X129961200Y-91950000D01*
X137838389Y-91950000D01*
X137838389Y-93150000D01*
X137859825Y-93257768D01*
X137920871Y-93349129D01*
X138012232Y-93410175D01*
X138043133Y-93416321D01*
X137993901Y-93534884D01*
X137993701Y-93764110D01*
X138043108Y-93883684D01*
X138012232Y-93889825D01*
X137920871Y-93950871D01*
X137859825Y-94042232D01*
X137838389Y-94150000D01*
X137838389Y-95350000D01*
X137859825Y-95457768D01*
X137920871Y-95549129D01*
X138012232Y-95610175D01*
X138120000Y-95631611D01*
X139020000Y-95631611D01*
X139127768Y-95610175D01*
X139219129Y-95549129D01*
X139280175Y-95457768D01*
X139301611Y-95350000D01*
X139301611Y-95276200D01*
X139604714Y-95276200D01*
X139724884Y-95326099D01*
X139954110Y-95326299D01*
X140075359Y-95276200D01*
X140378389Y-95276200D01*
X140378389Y-95350000D01*
X140399825Y-95457768D01*
X140460871Y-95549129D01*
X140552232Y-95610175D01*
X140660000Y-95631611D01*
X141560000Y-95631611D01*
X141667768Y-95610175D01*
X141759129Y-95549129D01*
X141820175Y-95457768D01*
X141841611Y-95350000D01*
X141841611Y-94150000D01*
X141820175Y-94042232D01*
X141759129Y-93950871D01*
X141667768Y-93889825D01*
X141560000Y-93868389D01*
X140660000Y-93868389D01*
X140552232Y-93889825D01*
X140460871Y-93950871D01*
X140399825Y-94042232D01*
X140378389Y-94150000D01*
X140378389Y-94223800D01*
X140075286Y-94223800D01*
X139955116Y-94173901D01*
X139725890Y-94173701D01*
X139604641Y-94223800D01*
X139301611Y-94223800D01*
X139301611Y-94150000D01*
X139280175Y-94042232D01*
X139219129Y-93950871D01*
X139127768Y-93889825D01*
X139096867Y-93883679D01*
X139146099Y-93765116D01*
X139146299Y-93535890D01*
X139096892Y-93416316D01*
X139127768Y-93410175D01*
X139219129Y-93349129D01*
X139280175Y-93257768D01*
X139301611Y-93150000D01*
X139301611Y-91950000D01*
X139280175Y-91842232D01*
X139219129Y-91750871D01*
X139127768Y-91689825D01*
X139020000Y-91668389D01*
X138120000Y-91668389D01*
X138012232Y-91689825D01*
X137920871Y-91750871D01*
X137859825Y-91842232D01*
X137838389Y-91950000D01*
X129961200Y-91950000D01*
X129961200Y-91572960D01*
X130532960Y-91001200D01*
X144337040Y-91001200D01*
X148073958Y-94738117D01*
X148073640Y-95103424D01*
X148214348Y-95443965D01*
X148474665Y-95704736D01*
X148814959Y-95846039D01*
X149183424Y-95846360D01*
X149523965Y-95705652D01*
X149784736Y-95445335D01*
X149926039Y-95105041D01*
X149926040Y-95103424D01*
X150073640Y-95103424D01*
X150214348Y-95443965D01*
X150474665Y-95704736D01*
X150814959Y-95846039D01*
X151183424Y-95846360D01*
X151523965Y-95705652D01*
X151784736Y-95445335D01*
X151926039Y-95105041D01*
X151926359Y-94737801D01*
X155662959Y-91001200D01*
X169467040Y-91001200D01*
X170038800Y-91572960D01*
X170038800Y-92207072D01*
X169984464Y-92229523D01*
X169695538Y-92517946D01*
X169538979Y-92894981D01*
X169538623Y-93303228D01*
X169694523Y-93680536D01*
X169982946Y-93969462D01*
X170359981Y-94126021D01*
X170768228Y-94126377D01*
X171145536Y-93970477D01*
X171434462Y-93682054D01*
X171591021Y-93305019D01*
X171591377Y-92896772D01*
X171435477Y-92519464D01*
X171147054Y-92230538D01*
X171091200Y-92207345D01*
X171091200Y-91355005D01*
X171091201Y-91355000D01*
X171051145Y-91153632D01*
X170937080Y-90982920D01*
X170057080Y-90102920D01*
X169886368Y-89988855D01*
X169685000Y-89948799D01*
X169684995Y-89948800D01*
X155445000Y-89948800D01*
X155243632Y-89988855D01*
X155072920Y-90102920D01*
X155072918Y-90102923D01*
X151181882Y-93993958D01*
X150816576Y-93993640D01*
X150476035Y-94134348D01*
X150215264Y-94394665D01*
X150073961Y-94734959D01*
X150073640Y-95103424D01*
X149926040Y-95103424D01*
X149926360Y-94736576D01*
X149785652Y-94396035D01*
X149525335Y-94135264D01*
X149185041Y-93993961D01*
X148817800Y-93993641D01*
X145564160Y-90740000D01*
X148239982Y-90740000D01*
X148333321Y-91209246D01*
X148599128Y-91607054D01*
X148996936Y-91872861D01*
X149466182Y-91966200D01*
X150533818Y-91966200D01*
X151003064Y-91872861D01*
X151400872Y-91607054D01*
X151666679Y-91209246D01*
X151760018Y-90740000D01*
X151666679Y-90270754D01*
X151400872Y-89872946D01*
X151003064Y-89607139D01*
X150533818Y-89513800D01*
X149466182Y-89513800D01*
X148996936Y-89607139D01*
X148599128Y-89872946D01*
X148333321Y-90270754D01*
X148239982Y-90740000D01*
X145564160Y-90740000D01*
X144927080Y-90102920D01*
X144756368Y-89988855D01*
X144555000Y-89948799D01*
X144554995Y-89948800D01*
X130315005Y-89948800D01*
X130315000Y-89948799D01*
X130113632Y-89988855D01*
X129942920Y-90102920D01*
X129062920Y-90982920D01*
X128948855Y-91153632D01*
X128908799Y-91355000D01*
X128908800Y-91355005D01*
X128908800Y-92207072D01*
X128854464Y-92229523D01*
X128565538Y-92517946D01*
X128408979Y-92894981D01*
X128408623Y-93303228D01*
X126801200Y-93303228D01*
X126801200Y-89529668D01*
X126859845Y-89234839D01*
X127010047Y-89010046D01*
X127234838Y-88859845D01*
X127529668Y-88801200D01*
X172470332Y-88801200D01*
X172765161Y-88859845D01*
M02*
