G04 #@! TF.FileFunction,Legend,Bot*
%FSLAX46Y46*%
G04 Gerber Fmt 4.6, Leading zero omitted, Abs format (unit mm)*
G04 Created by KiCad (PCBNEW (2016-03-06 BZR 6610)-product) date 2016 April 20, Wednesday 18:41:49*
%MOMM*%
G01*
G04 APERTURE LIST*
%ADD10C,0.100000*%
%ADD11C,0.150000*%
G04 APERTURE END LIST*
D10*
D11*
X169319905Y-106792381D02*
X169319905Y-107601905D01*
X169272286Y-107697143D01*
X169224667Y-107744762D01*
X169129429Y-107792381D01*
X168938952Y-107792381D01*
X168843714Y-107744762D01*
X168796095Y-107697143D01*
X168748476Y-107601905D01*
X168748476Y-106792381D01*
X168319905Y-107744762D02*
X168177048Y-107792381D01*
X167938952Y-107792381D01*
X167843714Y-107744762D01*
X167796095Y-107697143D01*
X167748476Y-107601905D01*
X167748476Y-107506667D01*
X167796095Y-107411429D01*
X167843714Y-107363810D01*
X167938952Y-107316190D01*
X168129429Y-107268571D01*
X168224667Y-107220952D01*
X168272286Y-107173333D01*
X168319905Y-107078095D01*
X168319905Y-106982857D01*
X168272286Y-106887619D01*
X168224667Y-106840000D01*
X168129429Y-106792381D01*
X167891333Y-106792381D01*
X167748476Y-106840000D01*
X166986571Y-107268571D02*
X166843714Y-107316190D01*
X166796095Y-107363810D01*
X166748476Y-107459048D01*
X166748476Y-107601905D01*
X166796095Y-107697143D01*
X166843714Y-107744762D01*
X166938952Y-107792381D01*
X167319905Y-107792381D01*
X167319905Y-106792381D01*
X166986571Y-106792381D01*
X166891333Y-106840000D01*
X166843714Y-106887619D01*
X166796095Y-106982857D01*
X166796095Y-107078095D01*
X166843714Y-107173333D01*
X166891333Y-107220952D01*
X166986571Y-107268571D01*
X167319905Y-107268571D01*
X165605619Y-107506667D02*
X165129428Y-107506667D01*
X165700857Y-107792381D02*
X165367524Y-106792381D01*
X165034190Y-107792381D01*
X164272285Y-107792381D02*
X164272285Y-106792381D01*
X164272285Y-107744762D02*
X164367523Y-107792381D01*
X164558000Y-107792381D01*
X164653238Y-107744762D01*
X164700857Y-107697143D01*
X164748476Y-107601905D01*
X164748476Y-107316190D01*
X164700857Y-107220952D01*
X164653238Y-107173333D01*
X164558000Y-107125714D01*
X164367523Y-107125714D01*
X164272285Y-107173333D01*
X163367523Y-107792381D02*
X163367523Y-107268571D01*
X163415142Y-107173333D01*
X163510380Y-107125714D01*
X163700857Y-107125714D01*
X163796095Y-107173333D01*
X163367523Y-107744762D02*
X163462761Y-107792381D01*
X163700857Y-107792381D01*
X163796095Y-107744762D01*
X163843714Y-107649524D01*
X163843714Y-107554286D01*
X163796095Y-107459048D01*
X163700857Y-107411429D01*
X163462761Y-107411429D01*
X163367523Y-107363810D01*
X162891333Y-107125714D02*
X162891333Y-108125714D01*
X162891333Y-107173333D02*
X162796095Y-107125714D01*
X162605618Y-107125714D01*
X162510380Y-107173333D01*
X162462761Y-107220952D01*
X162415142Y-107316190D01*
X162415142Y-107601905D01*
X162462761Y-107697143D01*
X162510380Y-107744762D01*
X162605618Y-107792381D01*
X162796095Y-107792381D01*
X162891333Y-107744762D01*
X162129428Y-107125714D02*
X161748476Y-107125714D01*
X161986571Y-106792381D02*
X161986571Y-107649524D01*
X161938952Y-107744762D01*
X161843714Y-107792381D01*
X161748476Y-107792381D01*
X161034189Y-107744762D02*
X161129427Y-107792381D01*
X161319904Y-107792381D01*
X161415142Y-107744762D01*
X161462761Y-107649524D01*
X161462761Y-107268571D01*
X161415142Y-107173333D01*
X161319904Y-107125714D01*
X161129427Y-107125714D01*
X161034189Y-107173333D01*
X160986570Y-107268571D01*
X160986570Y-107363810D01*
X161462761Y-107459048D01*
X160557999Y-107792381D02*
X160557999Y-107125714D01*
X160557999Y-107316190D02*
X160510380Y-107220952D01*
X160462761Y-107173333D01*
X160367523Y-107125714D01*
X160272284Y-107125714D01*
X159891332Y-107744762D02*
X159891332Y-107792381D01*
X159938951Y-107887619D01*
X159986570Y-107935238D01*
X168748476Y-109342381D02*
X169081810Y-108866190D01*
X169319905Y-109342381D02*
X169319905Y-108342381D01*
X168938952Y-108342381D01*
X168843714Y-108390000D01*
X168796095Y-108437619D01*
X168748476Y-108532857D01*
X168748476Y-108675714D01*
X168796095Y-108770952D01*
X168843714Y-108818571D01*
X168938952Y-108866190D01*
X169319905Y-108866190D01*
X167938952Y-109294762D02*
X168034190Y-109342381D01*
X168224667Y-109342381D01*
X168319905Y-109294762D01*
X168367524Y-109199524D01*
X168367524Y-108818571D01*
X168319905Y-108723333D01*
X168224667Y-108675714D01*
X168034190Y-108675714D01*
X167938952Y-108723333D01*
X167891333Y-108818571D01*
X167891333Y-108913810D01*
X168367524Y-109009048D01*
X167558000Y-108675714D02*
X167319905Y-109342381D01*
X167081809Y-108675714D01*
X165415142Y-109342381D02*
X165986571Y-109342381D01*
X165700857Y-109342381D02*
X165700857Y-108342381D01*
X165796095Y-108485238D01*
X165891333Y-108580476D01*
X165986571Y-108628095D01*
X164986571Y-109247143D02*
X164938952Y-109294762D01*
X164986571Y-109342381D01*
X165034190Y-109294762D01*
X164986571Y-109247143D01*
X164986571Y-109342381D01*
X164462762Y-109294762D02*
X164462762Y-109342381D01*
X164510381Y-109437619D01*
X164558000Y-109485238D01*
X162700857Y-109247143D02*
X162748476Y-109294762D01*
X162891333Y-109342381D01*
X162986571Y-109342381D01*
X163129429Y-109294762D01*
X163224667Y-109199524D01*
X163272286Y-109104286D01*
X163319905Y-108913810D01*
X163319905Y-108770952D01*
X163272286Y-108580476D01*
X163224667Y-108485238D01*
X163129429Y-108390000D01*
X162986571Y-108342381D01*
X162891333Y-108342381D01*
X162748476Y-108390000D01*
X162700857Y-108437619D01*
X161700857Y-109247143D02*
X161748476Y-109294762D01*
X161891333Y-109342381D01*
X161986571Y-109342381D01*
X162129429Y-109294762D01*
X162224667Y-109199524D01*
X162272286Y-109104286D01*
X162319905Y-108913810D01*
X162319905Y-108770952D01*
X162272286Y-108580476D01*
X162224667Y-108485238D01*
X162129429Y-108390000D01*
X161986571Y-108342381D01*
X161891333Y-108342381D01*
X161748476Y-108390000D01*
X161700857Y-108437619D01*
X161272286Y-108961429D02*
X160510381Y-108961429D01*
X159700857Y-108818571D02*
X159558000Y-108866190D01*
X159510381Y-108913810D01*
X159462762Y-109009048D01*
X159462762Y-109151905D01*
X159510381Y-109247143D01*
X159558000Y-109294762D01*
X159653238Y-109342381D01*
X160034191Y-109342381D01*
X160034191Y-108342381D01*
X159700857Y-108342381D01*
X159605619Y-108390000D01*
X159558000Y-108437619D01*
X159510381Y-108532857D01*
X159510381Y-108628095D01*
X159558000Y-108723333D01*
X159605619Y-108770952D01*
X159700857Y-108818571D01*
X160034191Y-108818571D01*
X158843715Y-108866190D02*
X158843715Y-109342381D01*
X159177048Y-108342381D02*
X158843715Y-108866190D01*
X158510381Y-108342381D01*
X158177048Y-108961429D02*
X157415143Y-108961429D01*
X156986572Y-109294762D02*
X156843715Y-109342381D01*
X156605619Y-109342381D01*
X156510381Y-109294762D01*
X156462762Y-109247143D01*
X156415143Y-109151905D01*
X156415143Y-109056667D01*
X156462762Y-108961429D01*
X156510381Y-108913810D01*
X156605619Y-108866190D01*
X156796096Y-108818571D01*
X156891334Y-108770952D01*
X156938953Y-108723333D01*
X156986572Y-108628095D01*
X156986572Y-108532857D01*
X156938953Y-108437619D01*
X156891334Y-108390000D01*
X156796096Y-108342381D01*
X156558000Y-108342381D01*
X156415143Y-108390000D01*
X156034191Y-109056667D02*
X155558000Y-109056667D01*
X156129429Y-109342381D02*
X155796096Y-108342381D01*
X155462762Y-109342381D01*
X153938952Y-108675714D02*
X153938952Y-109342381D01*
X154177048Y-108294762D02*
X154415143Y-109009048D01*
X153796095Y-109009048D01*
X153415143Y-109247143D02*
X153367524Y-109294762D01*
X153415143Y-109342381D01*
X153462762Y-109294762D01*
X153415143Y-109247143D01*
X153415143Y-109342381D01*
X152748477Y-108342381D02*
X152653238Y-108342381D01*
X152558000Y-108390000D01*
X152510381Y-108437619D01*
X152462762Y-108532857D01*
X152415143Y-108723333D01*
X152415143Y-108961429D01*
X152462762Y-109151905D01*
X152510381Y-109247143D01*
X152558000Y-109294762D01*
X152653238Y-109342381D01*
X152748477Y-109342381D01*
X152843715Y-109294762D01*
X152891334Y-109247143D01*
X152938953Y-109151905D01*
X152986572Y-108961429D01*
X152986572Y-108723333D01*
X152938953Y-108532857D01*
X152891334Y-108437619D01*
X152843715Y-108390000D01*
X152748477Y-108342381D01*
X151938953Y-109294762D02*
X151938953Y-109342381D01*
X151986572Y-109437619D01*
X152034191Y-109485238D01*
X169462762Y-110225714D02*
X169081810Y-110225714D01*
X169319905Y-109892381D02*
X169319905Y-110749524D01*
X169272286Y-110844762D01*
X169177048Y-110892381D01*
X169081810Y-110892381D01*
X168843714Y-110225714D02*
X168653238Y-110892381D01*
X168462761Y-110416190D01*
X168272285Y-110892381D01*
X168081809Y-110225714D01*
X167272285Y-110892381D02*
X167272285Y-110368571D01*
X167319904Y-110273333D01*
X167415142Y-110225714D01*
X167605619Y-110225714D01*
X167700857Y-110273333D01*
X167272285Y-110844762D02*
X167367523Y-110892381D01*
X167605619Y-110892381D01*
X167700857Y-110844762D01*
X167748476Y-110749524D01*
X167748476Y-110654286D01*
X167700857Y-110559048D01*
X167605619Y-110511429D01*
X167367523Y-110511429D01*
X167272285Y-110463810D01*
X166796095Y-110892381D02*
X166796095Y-110225714D01*
X166796095Y-110320952D02*
X166748476Y-110273333D01*
X166653238Y-110225714D01*
X166510380Y-110225714D01*
X166415142Y-110273333D01*
X166367523Y-110368571D01*
X166367523Y-110892381D01*
X166367523Y-110368571D02*
X166319904Y-110273333D01*
X166224666Y-110225714D01*
X166081809Y-110225714D01*
X165986571Y-110273333D01*
X165938952Y-110368571D01*
X165938952Y-110892381D01*
X165462762Y-110797143D02*
X165415143Y-110844762D01*
X165462762Y-110892381D01*
X165510381Y-110844762D01*
X165462762Y-110797143D01*
X165462762Y-110892381D01*
X164986572Y-110892381D02*
X164986572Y-110225714D01*
X164986572Y-109892381D02*
X165034191Y-109940000D01*
X164986572Y-109987619D01*
X164938953Y-109940000D01*
X164986572Y-109892381D01*
X164986572Y-109987619D01*
X164510382Y-110225714D02*
X164510382Y-110892381D01*
X164510382Y-110320952D02*
X164462763Y-110273333D01*
X164367525Y-110225714D01*
X164224667Y-110225714D01*
X164129429Y-110273333D01*
X164081810Y-110368571D01*
X164081810Y-110892381D01*
X163748477Y-110225714D02*
X163367525Y-110225714D01*
X163605620Y-110892381D02*
X163605620Y-110035238D01*
X163558001Y-109940000D01*
X163462763Y-109892381D01*
X163367525Y-109892381D01*
X162891334Y-110892381D02*
X162986572Y-110844762D01*
X163034191Y-110797143D01*
X163081810Y-110701905D01*
X163081810Y-110416190D01*
X163034191Y-110320952D01*
X162986572Y-110273333D01*
X162891334Y-110225714D01*
X162748476Y-110225714D01*
X162653238Y-110273333D01*
X162605619Y-110320952D01*
X162558000Y-110416190D01*
X162558000Y-110701905D01*
X162605619Y-110797143D01*
X162653238Y-110844762D01*
X162748476Y-110892381D01*
X162891334Y-110892381D01*
M02*
