M48
;DRILL file {KiCad (2016-03-06 BZR 6610)-product} date 2016 April 20, Wednesday 18:41:51
;FORMAT={-:-/ absolute / inch / decimal}
FMAT,2
INCH,TZ
T1C0.016
T2C0.020
T3C0.030
T4C0.035
T5C0.040
T6C0.051
T7C0.126
%
G90
G05
M72
T1
X5.4555Y-3.687
X5.4555Y-4.187
X5.5055Y-3.7303
X6.3055Y-3.7303
X6.3555Y-3.687
X6.3555Y-4.187
T2
X5.436Y-3.937
X5.4637Y-3.8702
X5.4637Y-4.0038
X5.5305Y-3.8425
X5.5305Y-4.0315
X5.5973Y-3.8702
X5.5973Y-4.0038
X5.625Y-3.937
X6.186Y-3.937
X6.2137Y-3.8702
X6.2137Y-4.0038
X6.2805Y-3.8425
X6.2805Y-4.0315
X6.3473Y-3.8702
X6.3473Y-4.0038
X6.375Y-3.937
T3
X5.2494Y-3.6635
X5.2494Y-4.1535
X5.3494Y-3.8635
X6.4616Y-3.6635
X6.4616Y-4.1535
X6.5616Y-3.8635
T4
X5.0959Y-3.6654
X5.0959Y-3.7559
X5.0959Y-3.8465
X5.0959Y-3.937
X5.0959Y-4.0276
X5.0959Y-4.1181
X5.0959Y-4.2087
X5.7677Y-3.737
X5.7677Y-4.137
X5.8661Y-3.737
X5.8661Y-4.137
X5.9449Y-3.737
X5.9449Y-4.137
X6.0433Y-3.737
X6.0433Y-4.137
X6.7152Y-3.6654
X6.7152Y-3.7559
X6.7152Y-3.8465
X6.7152Y-3.937
X6.7152Y-4.0276
X6.7152Y-4.1181
X6.7152Y-4.2087
T5
X5.7555Y-3.937
X6.0555Y-3.937
T7
X5.5305Y-3.937
X6.2805Y-3.937
T6
X5.6469Y-3.6937G85X5.6469Y-3.7331
G05
X5.6469Y-4.1803G85X5.6469Y-4.1409
G05
X5.8858Y-3.5724G85X5.9252Y-3.5724
G05
X5.9252Y-4.3016G85X5.8858Y-4.3016
G05
X6.1642Y-3.6937G85X6.1642Y-3.7331
G05
X6.1642Y-4.1803G85X6.1642Y-4.1409
G05
T0
M30
