G04 #@! TF.FileFunction,Legend,Top*
%FSLAX46Y46*%
G04 Gerber Fmt 4.6, Leading zero omitted, Abs format (unit mm)*
G04 Created by KiCad (PCBNEW (2016-03-06 BZR 6610)-product) date 2016 April 20, Wednesday 18:41:49*
%MOMM*%
G01*
G04 APERTURE LIST*
%ADD10C,0.100000*%
%ADD11C,0.150000*%
G04 APERTURE END LIST*
D10*
D11*
X137895000Y-106850000D02*
X137895000Y-105850000D01*
X139245000Y-105850000D02*
X139245000Y-106850000D01*
X141785000Y-105850000D02*
X141785000Y-106850000D01*
X140435000Y-106850000D02*
X140435000Y-105850000D01*
X158215000Y-106850000D02*
X158215000Y-105850000D01*
X159565000Y-105850000D02*
X159565000Y-106850000D01*
X162105000Y-105850000D02*
X162105000Y-106850000D01*
X160755000Y-106850000D02*
X160755000Y-105850000D01*
X139245000Y-93150000D02*
X139245000Y-94150000D01*
X137895000Y-94150000D02*
X137895000Y-93150000D01*
X140435000Y-94150000D02*
X140435000Y-93150000D01*
X141785000Y-93150000D02*
X141785000Y-94150000D01*
X159565000Y-93150000D02*
X159565000Y-94150000D01*
X158215000Y-94150000D02*
X158215000Y-93150000D01*
X160755000Y-94150000D02*
X160755000Y-93150000D01*
X162105000Y-93150000D02*
X162105000Y-94150000D01*
X156550000Y-90160000D02*
X151500000Y-90160000D01*
X143450000Y-90160000D02*
X143450000Y-92620000D01*
X144000000Y-95880000D02*
X156000000Y-95880000D01*
X156550000Y-90160000D02*
X156550000Y-92620000D01*
X143450000Y-90160000D02*
X148500000Y-90160000D01*
X135875000Y-88228000D02*
X135621000Y-87974000D01*
X135621000Y-87974000D02*
X134605000Y-87974000D01*
X134605000Y-87974000D02*
X133589000Y-87974000D01*
X133589000Y-87974000D02*
X133335000Y-88228000D01*
X135875000Y-89625000D02*
X135875000Y-88355000D01*
X133335000Y-89625000D02*
X133335000Y-88355000D01*
X134605000Y-88101000D02*
X134605000Y-88609000D01*
X132573000Y-89752000D02*
X136637000Y-89752000D01*
X132573000Y-108548000D02*
X136637000Y-108548000D01*
X132573000Y-89752000D02*
X132573000Y-108548000D01*
X136637000Y-108548000D02*
X136637000Y-89752000D01*
X166665000Y-88228000D02*
X166411000Y-87974000D01*
X166411000Y-87974000D02*
X165395000Y-87974000D01*
X165395000Y-87974000D02*
X164379000Y-87974000D01*
X164379000Y-87974000D02*
X164125000Y-88228000D01*
X166665000Y-89625000D02*
X166665000Y-88355000D01*
X164125000Y-89625000D02*
X164125000Y-88355000D01*
X165395000Y-88101000D02*
X165395000Y-88609000D01*
X163363000Y-89752000D02*
X167427000Y-89752000D01*
X163363000Y-108548000D02*
X167427000Y-108548000D01*
X163363000Y-89752000D02*
X163363000Y-108548000D01*
X167427000Y-108548000D02*
X167427000Y-89752000D01*
X131935000Y-89000000D02*
X126935000Y-89000000D01*
X126935000Y-89000000D02*
X126935000Y-111000000D01*
X131935000Y-111000000D02*
X126935000Y-111000000D01*
X131935000Y-111000000D02*
X131935000Y-89000000D01*
X173065000Y-89000000D02*
X168065000Y-89000000D01*
X168065000Y-89000000D02*
X168065000Y-111000000D01*
X173065000Y-111000000D02*
X168065000Y-111000000D01*
X173065000Y-111000000D02*
X173065000Y-89000000D01*
X149500000Y-96785000D02*
X150500000Y-96785000D01*
X150500000Y-98135000D02*
X149500000Y-98135000D01*
X147740000Y-98450000D02*
X147740000Y-100000000D01*
X144640000Y-100000000D02*
X144640000Y-98450000D01*
X144640000Y-98450000D02*
X147740000Y-98450000D01*
X144920000Y-101270000D02*
X147460000Y-101270000D01*
X155360000Y-98450000D02*
X155360000Y-100000000D01*
X152260000Y-100000000D02*
X152260000Y-98450000D01*
X152260000Y-98450000D02*
X155360000Y-98450000D01*
X152540000Y-101270000D02*
X155080000Y-101270000D01*
X143450000Y-109840000D02*
X148500000Y-109840000D01*
X156550000Y-109840000D02*
X156550000Y-107380000D01*
X156000000Y-104120000D02*
X144000000Y-104120000D01*
X143450000Y-109840000D02*
X143450000Y-107380000D01*
X156550000Y-109840000D02*
X151500000Y-109840000D01*
X139022381Y-109437666D02*
X138546190Y-109771000D01*
X139022381Y-110009095D02*
X138022381Y-110009095D01*
X138022381Y-109628142D01*
X138070000Y-109532904D01*
X138117619Y-109485285D01*
X138212857Y-109437666D01*
X138355714Y-109437666D01*
X138450952Y-109485285D01*
X138498571Y-109532904D01*
X138546190Y-109628142D01*
X138546190Y-110009095D01*
X139022381Y-108485285D02*
X139022381Y-109056714D01*
X139022381Y-108771000D02*
X138022381Y-108771000D01*
X138165238Y-108866238D01*
X138260476Y-108961476D01*
X138308095Y-109056714D01*
X141562381Y-109437666D02*
X141086190Y-109771000D01*
X141562381Y-110009095D02*
X140562381Y-110009095D01*
X140562381Y-109628142D01*
X140610000Y-109532904D01*
X140657619Y-109485285D01*
X140752857Y-109437666D01*
X140895714Y-109437666D01*
X140990952Y-109485285D01*
X141038571Y-109532904D01*
X141086190Y-109628142D01*
X141086190Y-110009095D01*
X140657619Y-109056714D02*
X140610000Y-109009095D01*
X140562381Y-108913857D01*
X140562381Y-108675761D01*
X140610000Y-108580523D01*
X140657619Y-108532904D01*
X140752857Y-108485285D01*
X140848095Y-108485285D01*
X140990952Y-108532904D01*
X141562381Y-109104333D01*
X141562381Y-108485285D01*
X159342381Y-109437666D02*
X158866190Y-109771000D01*
X159342381Y-110009095D02*
X158342381Y-110009095D01*
X158342381Y-109628142D01*
X158390000Y-109532904D01*
X158437619Y-109485285D01*
X158532857Y-109437666D01*
X158675714Y-109437666D01*
X158770952Y-109485285D01*
X158818571Y-109532904D01*
X158866190Y-109628142D01*
X158866190Y-110009095D01*
X158342381Y-109104333D02*
X158342381Y-108485285D01*
X158723333Y-108818619D01*
X158723333Y-108675761D01*
X158770952Y-108580523D01*
X158818571Y-108532904D01*
X158913810Y-108485285D01*
X159151905Y-108485285D01*
X159247143Y-108532904D01*
X159294762Y-108580523D01*
X159342381Y-108675761D01*
X159342381Y-108961476D01*
X159294762Y-109056714D01*
X159247143Y-109104333D01*
X161882381Y-109437666D02*
X161406190Y-109771000D01*
X161882381Y-110009095D02*
X160882381Y-110009095D01*
X160882381Y-109628142D01*
X160930000Y-109532904D01*
X160977619Y-109485285D01*
X161072857Y-109437666D01*
X161215714Y-109437666D01*
X161310952Y-109485285D01*
X161358571Y-109532904D01*
X161406190Y-109628142D01*
X161406190Y-110009095D01*
X161215714Y-108580523D02*
X161882381Y-108580523D01*
X160834762Y-108818619D02*
X161549048Y-109056714D01*
X161549048Y-108437666D01*
X139022381Y-91022666D02*
X138546190Y-91356000D01*
X139022381Y-91594095D02*
X138022381Y-91594095D01*
X138022381Y-91213142D01*
X138070000Y-91117904D01*
X138117619Y-91070285D01*
X138212857Y-91022666D01*
X138355714Y-91022666D01*
X138450952Y-91070285D01*
X138498571Y-91117904D01*
X138546190Y-91213142D01*
X138546190Y-91594095D01*
X138022381Y-90117904D02*
X138022381Y-90594095D01*
X138498571Y-90641714D01*
X138450952Y-90594095D01*
X138403333Y-90498857D01*
X138403333Y-90260761D01*
X138450952Y-90165523D01*
X138498571Y-90117904D01*
X138593810Y-90070285D01*
X138831905Y-90070285D01*
X138927143Y-90117904D01*
X138974762Y-90165523D01*
X139022381Y-90260761D01*
X139022381Y-90498857D01*
X138974762Y-90594095D01*
X138927143Y-90641714D01*
X141562381Y-91022666D02*
X141086190Y-91356000D01*
X141562381Y-91594095D02*
X140562381Y-91594095D01*
X140562381Y-91213142D01*
X140610000Y-91117904D01*
X140657619Y-91070285D01*
X140752857Y-91022666D01*
X140895714Y-91022666D01*
X140990952Y-91070285D01*
X141038571Y-91117904D01*
X141086190Y-91213142D01*
X141086190Y-91594095D01*
X140562381Y-90165523D02*
X140562381Y-90356000D01*
X140610000Y-90451238D01*
X140657619Y-90498857D01*
X140800476Y-90594095D01*
X140990952Y-90641714D01*
X141371905Y-90641714D01*
X141467143Y-90594095D01*
X141514762Y-90546476D01*
X141562381Y-90451238D01*
X141562381Y-90260761D01*
X141514762Y-90165523D01*
X141467143Y-90117904D01*
X141371905Y-90070285D01*
X141133810Y-90070285D01*
X141038571Y-90117904D01*
X140990952Y-90165523D01*
X140943333Y-90260761D01*
X140943333Y-90451238D01*
X140990952Y-90546476D01*
X141038571Y-90594095D01*
X141133810Y-90641714D01*
X159342381Y-91022666D02*
X158866190Y-91356000D01*
X159342381Y-91594095D02*
X158342381Y-91594095D01*
X158342381Y-91213142D01*
X158390000Y-91117904D01*
X158437619Y-91070285D01*
X158532857Y-91022666D01*
X158675714Y-91022666D01*
X158770952Y-91070285D01*
X158818571Y-91117904D01*
X158866190Y-91213142D01*
X158866190Y-91594095D01*
X158342381Y-90689333D02*
X158342381Y-90022666D01*
X159342381Y-90451238D01*
X161882381Y-91022666D02*
X161406190Y-91356000D01*
X161882381Y-91594095D02*
X160882381Y-91594095D01*
X160882381Y-91213142D01*
X160930000Y-91117904D01*
X160977619Y-91070285D01*
X161072857Y-91022666D01*
X161215714Y-91022666D01*
X161310952Y-91070285D01*
X161358571Y-91117904D01*
X161406190Y-91213142D01*
X161406190Y-91594095D01*
X161310952Y-90451238D02*
X161263333Y-90546476D01*
X161215714Y-90594095D01*
X161120476Y-90641714D01*
X161072857Y-90641714D01*
X160977619Y-90594095D01*
X160930000Y-90546476D01*
X160882381Y-90451238D01*
X160882381Y-90260761D01*
X160930000Y-90165523D01*
X160977619Y-90117904D01*
X161072857Y-90070285D01*
X161120476Y-90070285D01*
X161215714Y-90117904D01*
X161263333Y-90165523D01*
X161310952Y-90260761D01*
X161310952Y-90451238D01*
X161358571Y-90546476D01*
X161406190Y-90594095D01*
X161501429Y-90641714D01*
X161691905Y-90641714D01*
X161787143Y-90594095D01*
X161834762Y-90546476D01*
X161882381Y-90451238D01*
X161882381Y-90260761D01*
X161834762Y-90165523D01*
X161787143Y-90117904D01*
X161691905Y-90070285D01*
X161501429Y-90070285D01*
X161406190Y-90117904D01*
X161358571Y-90165523D01*
X161310952Y-90260761D01*
X144054905Y-97277381D02*
X144054905Y-96277381D01*
X144435858Y-96277381D01*
X144531096Y-96325000D01*
X144578715Y-96372619D01*
X144626334Y-96467857D01*
X144626334Y-96610714D01*
X144578715Y-96705952D01*
X144531096Y-96753571D01*
X144435858Y-96801190D01*
X144054905Y-96801190D01*
X145578715Y-97277381D02*
X145007286Y-97277381D01*
X145293000Y-97277381D02*
X145293000Y-96277381D01*
X145197762Y-96420238D01*
X145102524Y-96515476D01*
X145007286Y-96563095D01*
X161580905Y-104135381D02*
X161580905Y-103135381D01*
X161961858Y-103135381D01*
X162057096Y-103183000D01*
X162104715Y-103230619D01*
X162152334Y-103325857D01*
X162152334Y-103468714D01*
X162104715Y-103563952D01*
X162057096Y-103611571D01*
X161961858Y-103659190D01*
X161580905Y-103659190D01*
X162533286Y-103230619D02*
X162580905Y-103183000D01*
X162676143Y-103135381D01*
X162914239Y-103135381D01*
X163009477Y-103183000D01*
X163057096Y-103230619D01*
X163104715Y-103325857D01*
X163104715Y-103421095D01*
X163057096Y-103563952D01*
X162485667Y-104135381D01*
X163104715Y-104135381D01*
X136942905Y-104135381D02*
X136942905Y-103135381D01*
X137323858Y-103135381D01*
X137419096Y-103183000D01*
X137466715Y-103230619D01*
X137514334Y-103325857D01*
X137514334Y-103468714D01*
X137466715Y-103563952D01*
X137419096Y-103611571D01*
X137323858Y-103659190D01*
X136942905Y-103659190D01*
X137847667Y-103135381D02*
X138466715Y-103135381D01*
X138133381Y-103516333D01*
X138276239Y-103516333D01*
X138371477Y-103563952D01*
X138419096Y-103611571D01*
X138466715Y-103706810D01*
X138466715Y-103944905D01*
X138419096Y-104040143D01*
X138371477Y-104087762D01*
X138276239Y-104135381D01*
X137990524Y-104135381D01*
X137895286Y-104087762D01*
X137847667Y-104040143D01*
X134799762Y-109977381D02*
X134466428Y-109501190D01*
X134228333Y-109977381D02*
X134228333Y-108977381D01*
X134609286Y-108977381D01*
X134704524Y-109025000D01*
X134752143Y-109072619D01*
X134799762Y-109167857D01*
X134799762Y-109310714D01*
X134752143Y-109405952D01*
X134704524Y-109453571D01*
X134609286Y-109501190D01*
X134228333Y-109501190D01*
X135085476Y-108977381D02*
X135418809Y-109977381D01*
X135752143Y-108977381D01*
X136609286Y-109977381D02*
X136037857Y-109977381D01*
X136323571Y-109977381D02*
X136323571Y-108977381D01*
X136228333Y-109120238D01*
X136133095Y-109215476D01*
X136037857Y-109263095D01*
X164009762Y-109977381D02*
X163676428Y-109501190D01*
X163438333Y-109977381D02*
X163438333Y-108977381D01*
X163819286Y-108977381D01*
X163914524Y-109025000D01*
X163962143Y-109072619D01*
X164009762Y-109167857D01*
X164009762Y-109310714D01*
X163962143Y-109405952D01*
X163914524Y-109453571D01*
X163819286Y-109501190D01*
X163438333Y-109501190D01*
X164295476Y-108977381D02*
X164628809Y-109977381D01*
X164962143Y-108977381D01*
X165247857Y-109072619D02*
X165295476Y-109025000D01*
X165390714Y-108977381D01*
X165628810Y-108977381D01*
X165724048Y-109025000D01*
X165771667Y-109072619D01*
X165819286Y-109167857D01*
X165819286Y-109263095D01*
X165771667Y-109405952D01*
X165200238Y-109977381D01*
X165819286Y-109977381D01*
X127711667Y-110564762D02*
X127854524Y-110612381D01*
X128092620Y-110612381D01*
X128187858Y-110564762D01*
X128235477Y-110517143D01*
X128283096Y-110421905D01*
X128283096Y-110326667D01*
X128235477Y-110231429D01*
X128187858Y-110183810D01*
X128092620Y-110136190D01*
X127902143Y-110088571D01*
X127806905Y-110040952D01*
X127759286Y-109993333D01*
X127711667Y-109898095D01*
X127711667Y-109802857D01*
X127759286Y-109707619D01*
X127806905Y-109660000D01*
X127902143Y-109612381D01*
X128140239Y-109612381D01*
X128283096Y-109660000D01*
X128616429Y-109612381D02*
X128854524Y-110612381D01*
X129045001Y-109898095D01*
X129235477Y-110612381D01*
X129473572Y-109612381D01*
X130378334Y-110612381D02*
X129806905Y-110612381D01*
X130092619Y-110612381D02*
X130092619Y-109612381D01*
X129997381Y-109755238D01*
X129902143Y-109850476D01*
X129806905Y-109898095D01*
X169621667Y-110564762D02*
X169764524Y-110612381D01*
X170002620Y-110612381D01*
X170097858Y-110564762D01*
X170145477Y-110517143D01*
X170193096Y-110421905D01*
X170193096Y-110326667D01*
X170145477Y-110231429D01*
X170097858Y-110183810D01*
X170002620Y-110136190D01*
X169812143Y-110088571D01*
X169716905Y-110040952D01*
X169669286Y-109993333D01*
X169621667Y-109898095D01*
X169621667Y-109802857D01*
X169669286Y-109707619D01*
X169716905Y-109660000D01*
X169812143Y-109612381D01*
X170050239Y-109612381D01*
X170193096Y-109660000D01*
X170526429Y-109612381D02*
X170764524Y-110612381D01*
X170955001Y-109898095D01*
X171145477Y-110612381D01*
X171383572Y-109612381D01*
X171716905Y-109707619D02*
X171764524Y-109660000D01*
X171859762Y-109612381D01*
X172097858Y-109612381D01*
X172193096Y-109660000D01*
X172240715Y-109707619D01*
X172288334Y-109802857D01*
X172288334Y-109898095D01*
X172240715Y-110040952D01*
X171669286Y-110612381D01*
X172288334Y-110612381D01*
X149833334Y-99563381D02*
X149500000Y-99087190D01*
X149261905Y-99563381D02*
X149261905Y-98563381D01*
X149642858Y-98563381D01*
X149738096Y-98611000D01*
X149785715Y-98658619D01*
X149833334Y-98753857D01*
X149833334Y-98896714D01*
X149785715Y-98991952D01*
X149738096Y-99039571D01*
X149642858Y-99087190D01*
X149261905Y-99087190D01*
X150309524Y-99563381D02*
X150500000Y-99563381D01*
X150595239Y-99515762D01*
X150642858Y-99468143D01*
X150738096Y-99325286D01*
X150785715Y-99134810D01*
X150785715Y-98753857D01*
X150738096Y-98658619D01*
X150690477Y-98611000D01*
X150595239Y-98563381D01*
X150404762Y-98563381D01*
X150309524Y-98611000D01*
X150261905Y-98658619D01*
X150214286Y-98753857D01*
X150214286Y-98991952D01*
X150261905Y-99087190D01*
X150309524Y-99134810D01*
X150404762Y-99182429D01*
X150595239Y-99182429D01*
X150690477Y-99134810D01*
X150738096Y-99087190D01*
X150785715Y-98991952D01*
X147864905Y-101341381D02*
X147864905Y-100341381D01*
X148245858Y-100341381D01*
X148341096Y-100389000D01*
X148388715Y-100436619D01*
X148436334Y-100531857D01*
X148436334Y-100674714D01*
X148388715Y-100769952D01*
X148341096Y-100817571D01*
X148245858Y-100865190D01*
X147864905Y-100865190D01*
X149293477Y-100674714D02*
X149293477Y-101341381D01*
X149055381Y-100293762D02*
X148817286Y-101008048D01*
X149436334Y-101008048D01*
X150658905Y-101341381D02*
X150658905Y-100341381D01*
X151039858Y-100341381D01*
X151135096Y-100389000D01*
X151182715Y-100436619D01*
X151230334Y-100531857D01*
X151230334Y-100674714D01*
X151182715Y-100769952D01*
X151135096Y-100817571D01*
X151039858Y-100865190D01*
X150658905Y-100865190D01*
X152135096Y-100341381D02*
X151658905Y-100341381D01*
X151611286Y-100817571D01*
X151658905Y-100769952D01*
X151754143Y-100722333D01*
X151992239Y-100722333D01*
X152087477Y-100769952D01*
X152135096Y-100817571D01*
X152182715Y-100912810D01*
X152182715Y-101150905D01*
X152135096Y-101246143D01*
X152087477Y-101293762D01*
X151992239Y-101341381D01*
X151754143Y-101341381D01*
X151658905Y-101293762D01*
X151611286Y-101246143D01*
X144054905Y-103754381D02*
X144054905Y-102754381D01*
X144435858Y-102754381D01*
X144531096Y-102802000D01*
X144578715Y-102849619D01*
X144626334Y-102944857D01*
X144626334Y-103087714D01*
X144578715Y-103182952D01*
X144531096Y-103230571D01*
X144435858Y-103278190D01*
X144054905Y-103278190D01*
X145483477Y-102754381D02*
X145293000Y-102754381D01*
X145197762Y-102802000D01*
X145150143Y-102849619D01*
X145054905Y-102992476D01*
X145007286Y-103182952D01*
X145007286Y-103563905D01*
X145054905Y-103659143D01*
X145102524Y-103706762D01*
X145197762Y-103754381D01*
X145388239Y-103754381D01*
X145483477Y-103706762D01*
X145531096Y-103659143D01*
X145578715Y-103563905D01*
X145578715Y-103325810D01*
X145531096Y-103230571D01*
X145483477Y-103182952D01*
X145388239Y-103135333D01*
X145197762Y-103135333D01*
X145102524Y-103182952D01*
X145054905Y-103230571D01*
X145007286Y-103325810D01*
M02*
